<?xml version="1.0" encoding="UTF-8"?>
<svg version="1.1" xmlns="http://www.w3.org/2000/svg" width="1254" height="1254">
<path d="M0 0 C413.82 0 827.64 0 1254 0 C1254 413.82 1254 827.64 1254 1254 C840.18 1254 426.36 1254 0 1254 C0 840.18 0 426.36 0 0 Z " fill="#F8EBDF" transform="translate(0,0)"/>
<path d="M0 0 C0.67448181 -0.00189835 1.34896362 -0.00379669 2.04388428 -0.00575256 C4.26057828 -0.00943627 6.47693881 0.0012291 8.69360352 0.01245117 C10.26278139 0.01364692 11.83195999 0.0140953 13.40113831 0.01383972 C16.69536819 0.01540173 19.98948901 0.02365521 23.28369141 0.03710938 C27.42998752 0.05385986 31.57616148 0.05793006 35.72248745 0.05716419 C38.97208243 0.05744169 42.22165259 0.06301692 45.47123909 0.07016563 C46.99487178 0.07327184 48.5185072 0.07529999 50.04214287 0.07605934 C59.02194064 0.08541401 67.96863314 0.31084134 76.93896484 0.7265625 C90.80095581 1.35683052 104.66528138 1.4932116 118.53876495 1.62734604 C123.19833991 1.67276163 127.85780248 1.72627997 132.51727295 1.78128052 C134.12816228 1.80020079 135.73905172 1.81911209 137.34994125 1.8380146 C138.55738157 1.85218623 138.55738157 1.85218623 139.78921461 1.86664414 C150.59335452 1.99278698 161.39753634 2.11216386 172.2019043 2.21704102 C179.55485395 2.2884804 186.90761506 2.37016037 194.26032329 2.46325886 C198.12911989 2.51181668 201.99781507 2.55525701 205.8667984 2.58590317 C209.49520328 2.61467203 213.1232106 2.65693249 216.75135231 2.70908737 C218.69533862 2.73359456 220.63948692 2.74402704 222.58360291 2.75384521 C236.34269312 2.98033663 246.79021316 5.61423445 256.92016602 15.16088867 C264.4316855 23.15084889 267.07125311 31.7177303 266.94750977 42.49291992 C266.94299805 43.23799805 266.93848633 43.98307617 266.93383789 44.75073242 C266.92210222 46.58149632 266.90416827 48.41221865 266.88500977 50.24291992 C267.77704102 50.32799805 268.66907227 50.41307617 269.58813477 50.50073242 C275.44521318 51.34623475 281.01214231 53.32897724 286.63500977 55.11791992 C287.90930507 55.51890916 289.18376412 55.91937833 290.45837402 56.31936646 C293.18106297 57.17481789 295.9026984 58.03351224 298.62353516 58.89483643 C302.92707408 60.25706666 307.23291112 61.61191899 311.53930664 62.96508789 C312.26252357 63.19235754 312.98574051 63.41962719 313.73087311 63.6537838 C315.19998555 64.11544267 316.66910432 64.57708138 318.13822937 65.0387001 C320.36375792 65.73825014 322.58906709 66.43849429 324.81433105 67.1388855 C338.98908822 71.59887366 353.18439345 75.99095067 367.38500977 80.36791992 C371.86431815 81.74897129 376.34350843 83.13040431 380.82250977 84.51245117 C381.8690271 84.83535629 382.91554443 85.15826141 383.99377441 85.49095154 C390.29603533 87.43753051 396.59319713 89.3995576 402.88500977 91.37963867 C403.63230347 91.61457031 404.37959717 91.84950195 405.14953613 92.09155273 C408.43197056 93.12398033 411.71321407 94.15977183 414.99243164 95.20239258 C422.14629747 97.45849989 429.32591928 99.45157962 436.59619141 101.28930664 C441.19372108 102.62238889 444.97511336 104.51293308 448.88500977 107.24291992 C449.56950195 107.69924805 450.25399414 108.15557617 450.95922852 108.62573242 C458.62722864 114.4388068 462.71969427 122.72941229 464.67016602 131.95776367 C466.53679105 150.44952016 457.00386306 170.99995871 451.18579102 188.30151367 C449.53754492 193.21446135 448.0245584 198.09390236 446.76000977 203.11791992 C445.59506475 207.72615372 444.25388807 212.20656423 442.72827148 216.70336914 C441.05987129 221.7278911 439.55239577 226.80361114 438.01000977 231.86791992 C435.82320075 239.02384186 433.61670102 246.16198551 431.19750977 253.24291992 C429.14411753 259.28634856 427.43096609 265.38549526 425.76147461 271.54248047 C424.11717845 277.55028725 422.22618218 283.43820949 420.19360352 289.32495117 C419.08089765 292.59234393 418.06244898 295.88489741 417.05126953 299.18505859 C415.01458231 305.82151649 412.96709458 312.45457213 410.91625977 319.08666992 C410.55407349 320.25822632 410.19188721 321.42978271 409.81872559 322.63684082 C408.28935297 327.5838611 406.75978002 332.53081944 405.23022461 337.4777832 C404.10466619 341.11822376 402.97921102 344.75869623 401.85375977 348.39916992 C401.51509888 349.49434937 401.17643799 350.58952881 400.82751465 351.71789551 C397.13213654 363.67133567 393.45632403 375.63044787 389.81749725 387.60123253 C389.15991719 389.76440304 388.50202402 391.92747811 387.84405518 394.0905304 C385.97592735 400.23209734 384.10824322 406.37379914 382.2409668 412.515625 C381.89799938 413.6436041 381.89799938 413.6436041 381.54810333 414.79437065 C381.08838469 416.30636302 380.62872369 417.81837291 380.16912079 419.33040047 C379.03610689 423.05688124 377.90125401 426.78278445 376.76257324 430.50753784 C374.68138825 437.31824221 372.61625671 444.13217381 370.60571289 450.96411133 C370.25220764 452.15091995 369.89870239 453.33772858 369.53448486 454.5605011 C368.88724431 456.73504572 368.24886977 458.91226039 367.62176514 461.09269714 C365.30973117 468.80365005 362.25503225 475.73030738 356.01000977 481.05541992 C355.39383789 481.59811523 354.77766602 482.14081055 354.14282227 482.69995117 C345.76587104 488.42468428 336.60008511 488.91849091 326.88500977 487.24291992 C316.65157731 484.72786356 306.66905641 481.10036249 296.7421875 477.59326172 C293.23719977 476.35699694 289.7140758 475.18036724 286.18647766 474.01042175 C283.1511347 472.99818461 280.12503942 471.95983348 277.09872437 470.92097473 C273.71116019 469.76018564 270.31962022 468.61121451 266.92797852 467.46240234 C265.14448225 466.85609848 263.36225488 466.24604959 261.58129883 465.63232422 C258.98530161 464.73860853 256.38497392 463.85867046 253.78344727 462.98120117 C252.99473236 462.7062532 252.20601746 462.43130524 251.3934021 462.14802551 C245.40865008 460.15170415 240.57417028 459.4762691 234.36245728 461.24716187 C229.17788304 462.56979046 224.12618062 462.50949402 218.80200195 462.47119141 C217.69181953 462.470973 216.58163712 462.47075459 215.43781281 462.47052956 C211.68573363 462.46637682 207.93390943 462.44676688 204.18188477 462.42651367 C202.15478034 462.41994525 200.12767519 462.41480013 198.10056663 462.4096877 C160.1507834 462.30963045 122.2014764 461.84516413 84.25441885 461.40869939 C76.02480325 461.31449943 67.79512783 461.22666311 59.56542897 461.14008719 C51.5234093 461.0552685 43.48143692 460.96670573 35.43949199 460.87507433 C30.68178061 460.82090023 25.92406467 460.76813458 21.16629791 460.71904182 C16.74963847 460.67331197 12.33305713 460.62292647 7.91649246 460.56883049 C6.29829166 460.54980219 4.68007013 460.53245398 3.06183243 460.51687622 C0.86310104 460.49545018 -1.33547558 460.46806549 -3.53411865 460.43910217 C-4.76438152 460.42527528 -5.99464439 460.41144838 -7.26218796 460.39720249 C-10.11499023 460.24291992 -10.11499023 460.24291992 -12.11499023 459.24291992 C-19.17347444 459.63750441 -25.23582979 461.37109299 -31.87670898 463.70776367 C-32.89333618 464.05710968 -33.90996338 464.40645569 -34.95739746 464.76638794 C-37.12364627 465.51189398 -39.28848405 466.26151094 -41.45199585 467.0149231 C-44.82941744 468.18978677 -48.21128885 469.35088635 -51.59472656 470.50830078 C-60.54803553 473.57466454 -69.49627312 476.65363158 -78.4103241 479.83256531 C-80.473886 480.56652478 -82.5403871 481.29138036 -84.60839844 482.01269531 C-86.96811291 482.83846282 -89.32164338 483.68226768 -91.66650391 484.54931641 C-101.1927089 487.85689438 -112.01694806 489.36534377 -121.55249023 485.30541992 C-135.19095451 477.22672893 -138.25285425 463.35810027 -142.30249023 449.05541992 C-142.69311196 447.69173029 -143.08431902 446.3282082 -143.47607422 444.96484375 C-144.28812288 442.13666576 -145.09768181 439.30779506 -145.9050293 436.47827148 C-147.81391294 429.79124339 -149.74302153 423.11008525 -151.67749023 416.43041992 C-151.95666794 415.46511856 -151.95666794 415.46511856 -152.2414856 414.48031616 C-154.81756755 405.58093361 -157.48775373 396.71444206 -160.23999023 387.86791992 C-162.74441808 379.816887 -165.12793037 371.74724769 -167.36499023 363.61791992 C-170.93375367 350.65606125 -174.8187418 337.79318131 -178.70068359 324.92260742 C-181.49135329 315.66784492 -184.25093343 306.40650253 -186.92749023 297.11791992 C-189.31945248 288.82171985 -191.90255893 280.60104104 -194.56152344 272.38696289 C-196.88180426 265.14674896 -198.8928237 257.84611353 -200.84350586 250.49902344 C-202.84986671 243.02107175 -205.17484515 235.67133214 -207.57104492 228.31054688 C-209.77142483 221.48801998 -211.69239239 214.62436002 -213.4296875 207.66992188 C-214.54405 203.23994381 -215.85917668 198.93796872 -217.33422852 194.61523438 C-219.06050403 189.37001263 -220.47218102 184.02634799 -221.95288086 178.70776367 C-223.15348424 174.44238098 -224.43825208 170.34803746 -226.11499023 166.24291992 C-226.62420862 164.3340175 -227.10211522 162.41655558 -227.55249023 160.49291992 C-228.41054809 156.87681898 -229.36879863 153.53984421 -230.80249023 150.11791992 C-233.61489383 141.94998182 -233.82747498 130.13346906 -230.48999023 122.11791992 C-229.37280273 120.12182617 -229.37280273 120.12182617 -228.11499023 118.24291992 C-227.46143555 117.20458008 -227.46143555 117.20458008 -226.79467773 116.14526367 C-219.24011674 105.10239446 -207.81782547 100.85354507 -195.45092773 97.16870117 C-194.06310593 96.74716263 -194.06310593 96.74716263 -192.64724731 96.31710815 C-190.64515076 95.70965148 -188.64226384 95.1047948 -186.63867188 94.50228882 C-182.30505031 93.19908578 -177.97525632 91.88337495 -173.64520264 90.56837463 C-171.34969795 89.87132634 -169.05399948 89.1749159 -166.75811768 88.47911072 C-154.87209975 84.87441505 -143.00740006 81.20164553 -131.14373779 77.52416992 C-114.23607227 72.28356859 -97.32209311 67.06720976 -80.37509155 61.95516968 C-63.03358261 56.80722246 -63.03358261 56.80722246 -45.87670898 51.08666992 C-43.11499023 50.24291992 -43.11499023 50.24291992 -39.11499023 50.24291992 C-39.14979492 49.29932617 -39.18459961 48.35573242 -39.22045898 47.38354492 C-39.5316988 32.62188512 -37.08029046 21.5814979 -26.80249023 10.49291992 C-19.29250979 3.34766259 -10.33850183 -0.0121867 0 0 Z " fill="#F8ECDF" transform="translate(527.114990234375,348.757080078125)"/>
<path d="M0 0 C0.03092134 19.22915875 0.05107551 38.45832069 0.0625 57.6875 C0.0629343 58.39762599 0.06336861 59.10775199 0.06381607 59.83939695 C0.08593103 96.99966264 0.0465017 134.15530755 -0.5 171.3125 C-0.51793673 172.53312449 -0.51793673 172.53312449 -0.53623581 173.77840805 C-0.67576676 183.18587261 -0.82847711 192.5930588 -1 202 C-2.75629211 201.05319576 -4.51124137 200.10390033 -6.265625 199.15356445 C-7.24305664 198.62519485 -8.22048828 198.09682526 -9.22753906 197.55244446 C-12.65382051 195.63389204 -15.84068554 193.51235063 -19 191.1875 C-19.59119629 190.75646973 -20.18239258 190.32543945 -20.79150391 189.88134766 C-22.53633981 188.59872617 -24.27016514 187.30275945 -26 186 C-26.91523438 185.31292969 -27.83046875 184.62585938 -28.7734375 183.91796875 C-38.33707931 176.40778156 -47.78991097 167.64308466 -55.30078125 158.06640625 C-56.87593334 155.75719859 -56.87593334 155.75719859 -59.75 155.1875 C-60.4925 155.125625 -61.235 155.06375 -62 155 C-62.12117188 156.29292969 -62.24234375 157.58585938 -62.3671875 158.91796875 C-62.9172651 163.82745927 -63.9107832 168.52830293 -65.125 173.3125 C-65.34309326 174.17206299 -65.56118652 175.03162598 -65.78588867 175.91723633 C-70.0647192 192.26959702 -75.54955101 209.82432651 -85 224 C-85.38499891 225.65549531 -85.72793135 227.3222433 -86 229 C-85.45327637 229.15130371 -84.90655273 229.30260742 -84.34326172 229.45849609 C-78.22039928 231.30436864 -73.36310226 233.99748168 -68.125 237.625 C-67.33617432 238.16423096 -66.54734863 238.70346191 -65.73461914 239.2590332 C-54.98738786 246.68228756 -45.77610591 254.99111012 -36.74780273 264.4128418 C-36.04727783 265.13383057 -35.34675293 265.85481934 -34.625 266.59765625 C-33.99851562 267.25258057 -33.37203125 267.90750488 -32.7265625 268.58227539 C-30.98592044 270.31729979 -30.98592044 270.31729979 -28 270 C-27.67128906 268.36417969 -27.67128906 268.36417969 -27.3359375 266.6953125 C-24.15776443 251.36277486 -19.68414322 237.11845203 -13 222.9375 C-12.59700684 222.08115967 -12.19401367 221.22481934 -11.77880859 220.3425293 C-8.98810175 214.60035028 -5.87858957 209.08834744 -2 204 C-1.67 204 -1.34 204 -1 204 C-0.99853344 204.82991864 -0.99706688 205.65983728 -0.99555588 206.51490498 C-0.95845124 226.73928715 -0.89938802 246.96350223 -0.81609726 267.18774891 C-0.77634349 276.9681862 -0.74393241 286.74854345 -0.72900391 296.52905273 C-0.71596839 305.05701202 -0.68895531 313.58479493 -0.64538693 322.11265486 C-0.6228148 326.62516647 -0.60708676 331.13746088 -0.60811615 335.65003395 C-0.60886528 339.90435053 -0.59081362 344.15818776 -0.55883217 348.41238022 C-0.550369 349.96708042 -0.5485587 351.52183461 -0.55419731 353.07654762 C-0.59217713 365.16636409 0.88513764 374.88797773 8.73046875 384.44140625 C10 386 10 386 11 388 C9.65362961 388.44767982 9.65362961 388.44767982 8.28005981 388.90440369 C-0.16690776 391.7133107 -8.61335061 394.52379038 -17.05927849 397.33582211 C-21.40172228 398.78156172 -25.74435089 400.22674102 -30.08740234 401.6706543 C-34.27641841 403.06337881 -38.4649483 404.45755618 -42.65314102 405.85275459 C-44.25339552 406.3855555 -45.85382633 406.91782714 -47.45443344 407.44956779 C-49.69127876 408.19277341 -51.92749734 408.93783573 -54.16357422 409.68334961 C-54.82963684 409.90417206 -55.49569946 410.12499451 -56.1819458 410.35250854 C-58.52349095 411.13478666 -60.78868212 411.89434106 -63 413 C-70.20639278 413.61230788 -75.82182131 413.5046184 -81.55078125 408.69921875 C-85.03672194 405.21327806 -86.57356409 401.75065769 -87.9465332 397.04394531 C-88.45816513 395.31005554 -88.45816513 395.31005554 -88.98013306 393.5411377 C-89.31668915 392.37256226 -89.65324524 391.20398682 -90 390 C-90.30634369 388.95678589 -90.61268738 387.91357178 -90.92831421 386.83874512 C-91.87132323 383.6189863 -92.80204226 380.39586745 -93.73046875 377.171875 C-94.44942219 374.68429089 -95.16850329 372.19674366 -95.88769531 369.70922852 C-96.26584203 368.40024196 -96.64397499 367.09125143 -97.02209473 365.78225708 C-105.51818521 336.37855524 -114.20604545 307.03512818 -122.98925781 277.71582031 C-126.210952 266.95929869 -129.41879367 256.1986465 -132.625 245.4375 C-132.91808044 244.45407623 -133.21116089 243.47065247 -133.51312256 242.45742798 C-137.19058256 230.1154322 -140.8374343 217.76552942 -144.4296875 205.3984375 C-148.65329366 190.86250925 -152.88315526 176.33416533 -157.5625 161.9375 C-160.550646 152.74143599 -163.10760896 143.45558946 -165.51586914 134.09155273 C-166.80344003 129.14854048 -168.18708662 124.33431341 -169.984375 119.55078125 C-172.27989333 113.43471911 -173.92572187 107.19406703 -175.5625 100.875 C-177.31852998 94.13900918 -179.0609219 87.45792249 -181.42797852 80.90673828 C-183.36603783 74.44654057 -181.85960674 67.9548365 -179 62 C-174.46835849 55.20922157 -168.52583783 51.1906025 -160.71704102 48.82104492 C-159.49038223 48.44352585 -158.26372345 48.06600677 -156.99989319 47.67704773 C-155.66795701 47.27798955 -154.33595964 46.87913554 -153.00390625 46.48046875 C-151.61000231 46.05541097 -150.21636598 45.62947476 -148.82298279 45.20271301 C-145.15031101 44.08042696 -141.47415397 42.97001546 -137.79711914 41.86212158 C-134.14059218 40.75823235 -130.48742438 39.64335117 -126.83398438 38.52929688 C-119.82650713 36.39435279 -112.81567187 34.27064617 -105.80371094 32.15048218 C-91.30800532 27.76606621 -76.82373159 23.34940902 -62.375 18.8125 C-59.73712687 17.98520539 -57.09907813 17.15847243 -54.4609375 16.33203125 C-53.82386368 16.13237762 -53.18678986 15.932724 -52.53041077 15.72702026 C-48.55137049 14.48138368 -44.56823759 13.24983384 -40.58203125 12.02734375 C-35.6481905 10.51317288 -30.72295852 8.97340167 -25.80078125 7.421875 C-24.39389168 6.9791302 -22.98699061 6.53642197 -21.58007812 6.09375 C-19.42247888 5.41483206 -17.26517703 4.73502776 -15.10864258 4.05273438 C-12.98600042 3.38150581 -10.8622601 2.71385978 -8.73828125 2.046875 C-6.86716675 1.45664551 -6.86716675 1.45664551 -4.95825195 0.85449219 C-2 0 -2 0 0 0 Z " fill="#F8EBDE" transform="translate(488,411)"/>
<path d="M0 0 C2.04616441 0.45884232 4.09149347 0.92141056 6.13647461 1.38549805 C7.27555771 1.64268112 8.41464081 1.8998642 9.58824158 2.1648407 C14.68738523 3.41305254 19.60848783 5.08686931 24.5625 6.8125 C32.66942696 9.61721227 40.82686022 12.17076253 49.04812622 14.61430359 C58.71690649 17.49555131 68.32635871 20.55801377 77.9375 23.625 C81.44634244 24.74304348 84.95547875 25.86016037 88.46484375 26.9765625 C89.3019841 27.24288986 90.13912445 27.50921722 91.00163269 27.78361511 C97.65519935 29.89724992 104.32284133 31.96210565 111 34 C113.1316397 34.65452701 115.26314832 35.30948107 117.39453125 35.96484375 C118.44406982 36.28743164 119.4936084 36.61001953 120.57495117 36.94238281 C121.64334229 37.27077148 122.7117334 37.59916016 123.8125 37.9375 C125.51079956 38.45908691 125.51079956 38.45908691 127.2434082 38.99121094 C132.07067026 40.47546224 136.89718641 41.9606977 141.7109375 43.48828125 C142.38777588 43.70291016 143.06461426 43.91753906 143.76196289 44.13867188 C144.39739014 44.34041016 145.03281738 44.54214844 145.6875 44.75 C150.07692596 46.14222046 154.45516831 47.3771191 158.92724609 48.45898438 C168.98864921 50.9308257 176.99039038 54.31082457 182.8828125 63.1328125 C186.45814301 69.1083649 186.86941838 74.7248118 185.48339844 81.5402832 C184.77381247 84.19269947 183.99913433 86.81455881 183.1875 89.4375 C182.92646484 90.31470703 182.66542969 91.19191406 182.39648438 92.09570312 C181.86982678 93.86033116 181.33728404 95.62321359 180.79882812 97.38427734 C180.01168386 99.96174179 179.24533332 102.54475666 178.48046875 105.12890625 C177.1331738 109.62415253 175.64648514 114.06136263 174.125 118.5 C171.77970804 125.42499427 169.73310911 132.39100071 167.8269043 139.44799805 C166.16563553 145.54420753 164.22134856 151.50749533 162.1875 157.48828125 C159.56496027 165.24375235 157.22640472 173.04998854 155.1796875 180.9765625 C153.31839665 188.05704286 151.12898964 195.00501905 148.82376099 201.95431519 C144.98279263 213.54906915 141.41387945 225.18213966 138.24487305 236.98193359 C136.93729621 241.82116675 135.51604151 246.51612584 133.69458008 251.18676758 C132.60081348 254.0420943 131.71353522 256.95395443 130.8125 259.875 C130.60818359 260.5357251 130.40386719 261.1964502 130.19335938 261.87719727 C129.72757881 263.38507745 129.26297311 264.89332087 128.79931641 266.40185547 C127.89441491 269.34319992 126.98433796 272.2829222 126.07421875 275.22265625 C121.67211952 289.46114125 121.67211952 289.46114125 117.4375 303.75 C115.31772649 311.0601543 113.02024747 318.30946394 110.67358398 325.54980469 C108.96538362 330.85080423 107.34732635 336.17383911 105.78515625 341.51953125 C102.59634982 352.42430997 99.3185397 363.30170613 96.0065918 374.16967773 C95.2882325 376.53342267 94.5737722 378.89835573 93.86303711 381.2644043 C92.82304774 384.72477577 91.77031254 388.18104194 90.71484375 391.63671875 C90.4011937 392.68985764 90.08754364 393.74299652 89.76438904 394.82804871 C87.64421115 401.70542646 85.82541106 406.90919581 79.875 411.3125 C72.68755658 414.96323194 65.44982336 414.30190226 57.9848175 411.92936707 C56.55953987 411.44419365 56.55953987 411.44419365 55.10546875 410.94921875 C54.0868425 410.61928421 53.06821625 410.28934967 52.01872253 409.94941711 C48.7352579 408.88058353 45.46158058 407.78470573 42.1875 406.6875 C39.93684018 405.94840802 37.68569823 405.21078263 35.43408203 404.47460938 C28.94615632 402.3455937 22.47067786 400.18081822 16 398 C15.11487732 397.70176331 14.22975464 397.40352661 13.31781006 397.09625244 C4.52298637 394.12753832 -4.25338504 391.1082823 -13 388 C-12.03312946 386.0572157 -11.0652924 384.12106851 -10.03515625 382.2109375 C-5.30282295 373.27842083 -3.5527115 364.93616542 -3.58349609 354.86914062 C-3.57491074 353.80419373 -3.56632538 352.73924683 -3.55747986 351.64202881 C-3.5325393 348.14670055 -3.52804822 344.65165895 -3.5234375 341.15625 C-3.50910448 338.70258743 -3.49334339 336.24893282 -3.47622681 333.79528809 C-3.43446011 327.34474279 -3.40942214 320.8942468 -3.38873291 314.44360352 C-3.35288694 304.14991649 -3.29128841 293.85635241 -3.23024368 283.56278992 C-3.21140537 279.99486294 -3.19949222 276.42696836 -3.18881226 272.85900879 C-3.13873294 260.54003746 -2.85816106 248.29060129 -2 236 C0.24609375 237.26953125 2.4921875 238.5390625 4.73828125 239.80859375 C10.26584542 242.72035035 15.89097359 242.69437543 22 242 C25.5670321 240.67682078 28.76938811 239.001264 32 237 C28.81728231 248.55829054 23.37557611 256.54120834 14 264 C14.495 265.98 14.495 265.98 15 268 C15.89460937 268.25394531 16.78921875 268.50789063 17.7109375 268.76953125 C19.52464844 269.28580078 19.52464844 269.28580078 21.375 269.8125 C22.01187744 269.99337158 22.64875488 270.17424316 23.30493164 270.3605957 C27.03146473 271.42310992 30.73869815 272.53269633 34.4375 273.6875 C38.29335172 274.86018879 41.99565133 275.56474471 46 276 C45.41562112 272.75471146 44.58542046 269.83330327 43.4375 266.75 C41.08404313 259.16153663 40.47672072 248.56983784 43 241 C43.66 241 44.32 241 45 241 C45.268125 241.65226563 45.53625 242.30453125 45.8125 242.9765625 C49.37228073 250.91581031 53.40709984 255.22730169 61.5625 258.375 C69.58505409 259.8336462 75.69756399 258.49296088 83 255 C86.00333267 252.66663334 86.00333267 252.66663334 88 250 C88.53625 249.401875 89.0725 248.80375 89.625 248.1875 C93.92745991 241.34267742 95.06708174 234.63342254 93.56640625 226.7109375 C91.74126542 220.11322343 88.07406161 214.4892258 82.15234375 210.87109375 C76.71125268 208.55835073 70.84291242 208.31147879 65 208 C67.10578372 205.89421628 69.19127224 203.83324984 71.4375 201.875 C76.45800176 196.24224193 79.65900967 189.34762672 80.25 181.8125 C79.76799252 174.46188598 77.33708434 167.26866018 72 162 C65.14957798 157.51038079 57.82076819 155.81984425 49.7265625 157.4609375 C43.35507996 159.30931981 38.31807031 162.34322648 34.71484375 168.02734375 C29.62449965 177.82488778 30.24780059 187.50723977 33 198 C32.18595703 197.47599609 32.18595703 197.47599609 31.35546875 196.94140625 C30.64003906 196.48636719 29.92460938 196.03132812 29.1875 195.5625 C28.12595703 194.88380859 28.12595703 194.88380859 27.04296875 194.19140625 C21.51480362 190.9675241 15.19653638 191.45131024 9 192 C4.89184995 193.33975218 1.58624665 195.6091689 -2 198 C-2.15508191 164.01320271 -1.93138896 130.03273101 -1.59428024 96.04770279 C-1.56302302 92.8657426 -1.5328487 89.68377385 -1.50296021 86.50180054 C-1.22975325 57.66130578 -0.73193537 28.83253952 0 0 Z " fill="#F8EBDE" transform="translate(794,411)"/>
<path d="M0 0 C0.67448181 -0.00189835 1.34896362 -0.00379669 2.04388428 -0.00575256 C4.26057828 -0.00943627 6.47693881 0.0012291 8.69360352 0.01245117 C10.26278139 0.01364692 11.83195999 0.0140953 13.40113831 0.01383972 C16.69536819 0.01540173 19.98948901 0.02365521 23.28369141 0.03710938 C27.42998752 0.05385986 31.57616148 0.05793006 35.72248745 0.05716419 C38.97208243 0.05744169 42.22165259 0.06301692 45.47123909 0.07016563 C46.99487178 0.07327184 48.5185072 0.07529999 50.04214287 0.07605934 C59.02194064 0.08541401 67.96863314 0.31084134 76.93896484 0.7265625 C90.80095581 1.35683052 104.66528138 1.4932116 118.53876495 1.62734604 C123.19833991 1.67276163 127.85780248 1.72627997 132.51727295 1.78128052 C134.12816228 1.80020079 135.73905172 1.81911209 137.34994125 1.8380146 C138.55738157 1.85218623 138.55738157 1.85218623 139.78921461 1.86664414 C150.59335452 1.99278698 161.39753634 2.11216386 172.2019043 2.21704102 C179.55485395 2.2884804 186.90761506 2.37016037 194.26032329 2.46325886 C198.12911989 2.51181668 201.99781507 2.55525701 205.8667984 2.58590317 C209.49520328 2.61467203 213.1232106 2.65693249 216.75135231 2.70908737 C218.69533862 2.73359456 220.63948692 2.74402704 222.58360291 2.75384521 C236.34269312 2.98033663 246.79021316 5.61423445 256.92016602 15.16088867 C264.4316855 23.15084889 267.07125311 31.7177303 266.94750977 42.49291992 C266.94299805 43.23799805 266.93848633 43.98307617 266.93383789 44.75073242 C266.92210222 46.58149632 266.90416827 48.41221865 266.88500977 50.24291992 C267.77704102 50.32799805 268.66907227 50.41307617 269.58813477 50.50073242 C275.44521318 51.34623475 281.01214231 53.32897724 286.63500977 55.11791992 C287.90930507 55.51890916 289.18376412 55.91937833 290.45837402 56.31936646 C293.18106297 57.17481789 295.9026984 58.03351224 298.62353516 58.89483643 C302.92707408 60.25706666 307.23291112 61.61191899 311.53930664 62.96508789 C312.26252357 63.19235754 312.98574051 63.41962719 313.73087311 63.6537838 C315.19998555 64.11544267 316.66910432 64.57708138 318.13822937 65.0387001 C320.36375792 65.73825014 322.58906709 66.43849429 324.81433105 67.1388855 C338.98908822 71.59887366 353.18439345 75.99095067 367.38500977 80.36791992 C371.86431815 81.74897129 376.34350843 83.13040431 380.82250977 84.51245117 C381.8690271 84.83535629 382.91554443 85.15826141 383.99377441 85.49095154 C390.29603533 87.43753051 396.59319713 89.3995576 402.88500977 91.37963867 C403.63230347 91.61457031 404.37959717 91.84950195 405.14953613 92.09155273 C408.43197056 93.12398033 411.71321407 94.15977183 414.99243164 95.20239258 C422.14629747 97.45849989 429.32591928 99.45157962 436.59619141 101.28930664 C441.19372108 102.62238889 444.97511336 104.51293308 448.88500977 107.24291992 C449.56950195 107.69924805 450.25399414 108.15557617 450.95922852 108.62573242 C458.62722864 114.4388068 462.71969427 122.72941229 464.67016602 131.95776367 C466.53679105 150.44952016 457.00386306 170.99995871 451.18579102 188.30151367 C449.53754492 193.21446135 448.0245584 198.09390236 446.76000977 203.11791992 C445.59506475 207.72615372 444.25388807 212.20656423 442.72827148 216.70336914 C441.05987129 221.7278911 439.55239577 226.80361114 438.01000977 231.86791992 C435.82320075 239.02384186 433.61670102 246.16198551 431.19750977 253.24291992 C429.14411753 259.28634856 427.43096609 265.38549526 425.76147461 271.54248047 C424.11717845 277.55028725 422.22618218 283.43820949 420.19360352 289.32495117 C419.08089765 292.59234393 418.06244898 295.88489741 417.05126953 299.18505859 C415.01458231 305.82151649 412.96709458 312.45457213 410.91625977 319.08666992 C410.55407349 320.25822632 410.19188721 321.42978271 409.81872559 322.63684082 C408.28935297 327.5838611 406.75978002 332.53081944 405.23022461 337.4777832 C404.10466619 341.11822376 402.97921102 344.75869623 401.85375977 348.39916992 C401.51509888 349.49434937 401.17643799 350.58952881 400.82751465 351.71789551 C397.13213654 363.67133567 393.45632403 375.63044787 389.81749725 387.60123253 C389.15991719 389.76440304 388.50202402 391.92747811 387.84405518 394.0905304 C385.97592735 400.23209734 384.10824322 406.37379914 382.2409668 412.515625 C381.89799938 413.6436041 381.89799938 413.6436041 381.54810333 414.79437065 C381.08838469 416.30636302 380.62872369 417.81837291 380.16912079 419.33040047 C379.03610689 423.05688124 377.90125401 426.78278445 376.76257324 430.50753784 C374.68138825 437.31824221 372.61625671 444.13217381 370.60571289 450.96411133 C370.25220764 452.15091995 369.89870239 453.33772858 369.53448486 454.5605011 C368.88724431 456.73504572 368.24886977 458.91226039 367.62176514 461.09269714 C365.30973117 468.80365005 362.25503225 475.73030738 356.01000977 481.05541992 C355.39383789 481.59811523 354.77766602 482.14081055 354.14282227 482.69995117 C345.76587104 488.42468428 336.60008511 488.91849091 326.88500977 487.24291992 C316.65157731 484.72786356 306.66905641 481.10036249 296.7421875 477.59326172 C293.23719977 476.35699694 289.7140758 475.18036724 286.18647766 474.01042175 C283.1511347 472.99818461 280.12503942 471.95983348 277.09872437 470.92097473 C273.71116019 469.76018564 270.31962022 468.61121451 266.92797852 467.46240234 C265.14448225 466.85609848 263.36225488 466.24604959 261.58129883 465.63232422 C258.98530161 464.73860853 256.38497392 463.85867046 253.78344727 462.98120117 C252.99473236 462.7062532 252.20601746 462.43130524 251.3934021 462.14802551 C245.40865008 460.15170415 240.57417028 459.4762691 234.36245728 461.24716187 C229.17788304 462.56979046 224.12618062 462.50949402 218.80200195 462.47119141 C217.69181953 462.470973 216.58163712 462.47075459 215.43781281 462.47052956 C211.68573363 462.46637682 207.93390943 462.44676688 204.18188477 462.42651367 C202.15478034 462.41994525 200.12767519 462.41480013 198.10056663 462.4096877 C160.1507834 462.30963045 122.2014764 461.84516413 84.25441885 461.40869939 C76.02480325 461.31449943 67.79512783 461.22666311 59.56542897 461.14008719 C51.5234093 461.0552685 43.48143692 460.96670573 35.43949199 460.87507433 C30.68178061 460.82090023 25.92406467 460.76813458 21.16629791 460.71904182 C16.74963847 460.67331197 12.33305713 460.62292647 7.91649246 460.56883049 C6.29829166 460.54980219 4.68007013 460.53245398 3.06183243 460.51687622 C0.86310104 460.49545018 -1.33547558 460.46806549 -3.53411865 460.43910217 C-4.76438152 460.42527528 -5.99464439 460.41144838 -7.26218796 460.39720249 C-10.11499023 460.24291992 -10.11499023 460.24291992 -12.11499023 459.24291992 C-19.17347444 459.63750441 -25.23582979 461.37109299 -31.87670898 463.70776367 C-32.89333618 464.05710968 -33.90996338 464.40645569 -34.95739746 464.76638794 C-37.12364627 465.51189398 -39.28848405 466.26151094 -41.45199585 467.0149231 C-44.82941744 468.18978677 -48.21128885 469.35088635 -51.59472656 470.50830078 C-60.54803553 473.57466454 -69.49627312 476.65363158 -78.4103241 479.83256531 C-80.473886 480.56652478 -82.5403871 481.29138036 -84.60839844 482.01269531 C-86.96811291 482.83846282 -89.32164338 483.68226768 -91.66650391 484.54931641 C-101.1927089 487.85689438 -112.01694806 489.36534377 -121.55249023 485.30541992 C-135.19095451 477.22672893 -138.25285425 463.35810027 -142.30249023 449.05541992 C-142.69311196 447.69173029 -143.08431902 446.3282082 -143.47607422 444.96484375 C-144.28812288 442.13666576 -145.09768181 439.30779506 -145.9050293 436.47827148 C-147.81391294 429.79124339 -149.74302153 423.11008525 -151.67749023 416.43041992 C-151.95666794 415.46511856 -151.95666794 415.46511856 -152.2414856 414.48031616 C-154.81756755 405.58093361 -157.48775373 396.71444206 -160.23999023 387.86791992 C-162.74441808 379.816887 -165.12793037 371.74724769 -167.36499023 363.61791992 C-170.93375367 350.65606125 -174.8187418 337.79318131 -178.70068359 324.92260742 C-181.49135329 315.66784492 -184.25093343 306.40650253 -186.92749023 297.11791992 C-189.31945248 288.82171985 -191.90255893 280.60104104 -194.56152344 272.38696289 C-196.88180426 265.14674896 -198.8928237 257.84611353 -200.84350586 250.49902344 C-202.84986671 243.02107175 -205.17484515 235.67133214 -207.57104492 228.31054688 C-209.77142483 221.48801998 -211.69239239 214.62436002 -213.4296875 207.66992188 C-214.54405 203.23994381 -215.85917668 198.93796872 -217.33422852 194.61523438 C-219.06050403 189.37001263 -220.47218102 184.02634799 -221.95288086 178.70776367 C-223.15348424 174.44238098 -224.43825208 170.34803746 -226.11499023 166.24291992 C-226.62420862 164.3340175 -227.10211522 162.41655558 -227.55249023 160.49291992 C-228.41054809 156.87681898 -229.36879863 153.53984421 -230.80249023 150.11791992 C-233.61489383 141.94998182 -233.82747498 130.13346906 -230.48999023 122.11791992 C-229.37280273 120.12182617 -229.37280273 120.12182617 -228.11499023 118.24291992 C-227.46143555 117.20458008 -227.46143555 117.20458008 -226.79467773 116.14526367 C-219.24011674 105.10239446 -207.81782547 100.85354507 -195.45092773 97.16870117 C-194.06310593 96.74716263 -194.06310593 96.74716263 -192.64724731 96.31710815 C-190.64515076 95.70965148 -188.64226384 95.1047948 -186.63867188 94.50228882 C-182.30505031 93.19908578 -177.97525632 91.88337495 -173.64520264 90.56837463 C-171.34969795 89.87132634 -169.05399948 89.1749159 -166.75811768 88.47911072 C-154.87209975 84.87441505 -143.00740006 81.20164553 -131.14373779 77.52416992 C-114.23607227 72.28356859 -97.32209311 67.06720976 -80.37509155 61.95516968 C-63.03358261 56.80722246 -63.03358261 56.80722246 -45.87670898 51.08666992 C-43.11499023 50.24291992 -43.11499023 50.24291992 -39.11499023 50.24291992 C-39.14979492 49.29932617 -39.18459961 48.35573242 -39.22045898 47.38354492 C-39.5316988 32.62188512 -37.08029046 21.5814979 -26.80249023 10.49291992 C-19.29250979 3.34766259 -10.33850183 -0.0121867 0 0 Z M-21.11499023 22.24291992 C-26.39201711 29.97437791 -27.26167599 36.53379596 -27.3203125 45.69482422 C-27.33019794 46.66477766 -27.34008337 47.6347311 -27.35026836 48.63407707 C-27.38236728 51.94507231 -27.407053 55.25607782 -27.43139648 58.56713867 C-27.45242811 61.01431946 -27.4736548 63.46149857 -27.49505615 65.90867615 C-27.55895364 73.51602439 -27.61230239 81.1234226 -27.66280794 88.73087025 C-27.67743382 90.92196909 -27.69241431 93.11306525 -27.7074852 95.30416107 C-28.13715234 158.06545316 -28.30846045 220.82894175 -28.3898077 283.59158611 C-28.39355059 286.45620921 -28.39731653 289.32083227 -28.40109253 292.18545532 C-28.40201428 292.89398441 -28.40293602 293.6025135 -28.4038857 294.33251316 C-28.41813563 305.09096054 -28.44332907 315.84934594 -28.47415161 326.60775757 C-28.50963641 339.01365207 -28.5301869 351.41947189 -28.53291738 363.82541841 C-28.534699 370.26727139 -28.54303034 376.70894767 -28.56832123 383.15075493 C-28.59151142 389.12362469 -28.59591667 395.09621013 -28.58567894 401.06911337 C-28.58520743 403.24345409 -28.59152535 405.41780896 -28.60528004 407.59210622 C-28.62300812 410.55890944 -28.61588914 413.52468107 -28.60273743 416.4914856 C-28.6137065 417.33958028 -28.62467556 418.18767497 -28.63597703 419.0614695 C-28.55596697 426.56238132 -26.57547923 433.3408047 -21.67749023 439.11791992 C-20.83186523 439.81916992 -19.98624023 440.52041992 -19.11499023 441.24291992 C-18.33124023 441.94416992 -17.54749023 442.64541992 -16.73999023 443.36791992 C-9.81791957 448.31225611 -3.98846797 448.68651315 4.31420898 448.67529297 C6.0262566 448.6905592 6.0262566 448.6905592 7.77289104 448.70613384 C11.57854188 448.73641129 15.38394134 448.74555355 19.18969727 448.75463867 C21.89975571 448.77014837 24.60977789 448.79006092 27.31980896 448.8097229 C33.86464311 448.85441313 40.40945047 448.88310063 46.95439488 448.90561223 C52.24211836 448.92400536 57.52979134 448.94778956 62.81747437 448.97543335 C63.56773504 448.97934387 64.31799571 448.98325439 65.09099156 448.98728341 C66.61084108 448.99521765 68.13069056 449.0031596 69.65053999 449.01110923 C83.5033554 449.08285828 97.35619036 449.13658376 111.2091099 449.18327701 C123.24418029 449.22433675 135.27895183 449.28926445 147.31383514 449.36712551 C157.18133704 449.43034731 167.04882419 449.47917236 176.91646576 449.51452732 C182.60226558 449.53501914 188.28788207 449.56126445 193.97357178 449.60263062 C199.25945757 449.64043142 204.54505521 449.65887742 209.83107185 449.66205978 C211.74304106 449.6664126 213.65500956 449.67755263 215.56689262 449.69621658 C230.26066807 449.90769025 230.26066807 449.90769025 243.15454102 443.48901367 C253.09286568 431.83978755 252.48976436 419.0534756 252.50683594 404.52929688 C252.52382047 402.32611245 252.54253952 400.12294082 252.56285095 397.91978455 C252.61313756 391.94114107 252.63938283 385.9626041 252.66151214 379.98379922 C252.68928053 373.6555335 252.73993149 367.32745028 252.78816223 360.99931335 C252.86661569 350.31729643 252.93181045 339.63528409 252.98632812 328.953125 C253.06880659 312.80546558 253.17245035 296.65799904 253.28149414 280.51049805 C253.30798496 276.57248743 253.33444948 272.63447664 253.36089629 268.69646573 C253.3783647 266.09621254 253.39586989 263.49595959 253.41341239 260.89570689 C253.46529524 253.17336174 253.51476323 245.45100551 253.56234223 237.72863269 C253.75368655 206.74840313 254.0646645 175.77638788 254.60839844 144.80041218 C254.62837891 143.65987479 254.64835937 142.51933741 254.66894531 141.34423828 C254.69803986 139.68689682 254.69803986 139.68689682 254.72772217 137.99607372 C255.02907958 120.36012884 255.14335842 102.72301099 255.18017578 85.0847168 C255.18933829 81.1766951 255.21099787 77.26899506 255.24169922 73.36108398 C255.28012779 68.45673537 255.29892369 63.55268305 255.30345726 58.64818954 C255.30826398 56.83105276 255.31970372 55.01391869 255.33849525 53.19687271 C255.44805896 42.01082266 255.41241534 32.20163789 247.69750977 23.36791992 C242.45159423 18.08216199 235.22809923 15.82288087 227.94979382 15.62943077 C227.11960893 15.62667955 226.28942404 15.62392834 225.43408203 15.62109375 C224.52889737 15.6025918 223.62371271 15.58408985 222.69109821 15.56502724 C219.69453456 15.50840441 216.69836278 15.47909467 213.70141602 15.44995117 C211.56175044 15.41513809 209.42211161 15.37864562 207.28250122 15.34059143 C201.53217234 15.24317127 195.7817648 15.16952974 190.03103256 15.10063934 C184.02292589 15.02482481 178.0151608 14.92774585 172.00732422 14.83325195 C161.07567066 14.66468502 150.14385628 14.51572117 139.21179295 14.37649536 C131.71114899 14.28070463 124.21064764 14.17805282 116.71020508 14.06762695 C95.62796349 13.75781893 74.54593224 13.48891323 53.46221638 13.30220509 C49.13499123 13.26387926 44.80781829 13.22224067 40.48065472 13.17751122 C33.38997818 13.10442365 26.2993839 13.04795392 19.20840454 13.01275635 C16.95004949 12.99976546 14.69171565 12.98200226 12.43344116 12.95892334 C9.41454844 12.92956901 6.39621472 12.91936298 3.37719727 12.91479492 C2.09138008 12.89635025 2.09138008 12.89635025 0.77958679 12.87753296 C-7.97524739 12.909849 -15.21893639 15.60089333 -21.11499023 22.24291992 Z M266.88500977 62.24291992 C266.12652603 92.12125764 265.63330714 121.99546501 265.35258102 151.88198471 C265.32202166 155.10692982 265.29032046 158.33186199 265.2583313 161.55679321 C264.93346894 194.45301416 264.73489662 227.34504717 264.88500977 260.24291992 C265.42770508 259.89358398 265.97040039 259.54424805 266.52954102 259.18432617 C267.2449707 258.72928711 267.96040039 258.27424805 268.69750977 257.80541992 C269.40520508 257.35295898 270.11290039 256.90049805 270.84204102 256.43432617 C276.37020615 253.21044402 282.68847339 253.69423016 288.88500977 254.24291992 C292.99315982 255.5826721 296.29876311 257.85208882 299.88500977 260.24291992 C299.39000977 258.35573242 299.39000977 258.35573242 298.88500977 256.43041992 C297.00962557 247.83603334 296.86286981 239.24183735 300.88500977 231.24291992 C304.72923716 225.36008709 309.55511593 221.57519495 316.32250977 219.49291992 C324.7119574 218.67443723 331.29826603 219.53257135 338.63500977 223.86791992 C343.99250766 229.52305659 346.43111224 235.70394465 347.19750977 243.36791992 C346.55664496 251.31464356 343.45899151 259.41485354 337.88500977 265.24291992 C335.94786674 266.74042765 333.98578359 267.97268459 331.88500977 269.24291992 C331.88500977 269.57291992 331.88500977 269.90291992 331.88500977 270.24291992 C333.40481445 270.38987305 333.40481445 270.38987305 334.95532227 270.53979492 C336.30698031 270.68997915 337.65853793 270.84106915 339.01000977 270.99291992 C339.67516602 271.05479492 340.34032227 271.11666992 341.02563477 271.18041992 C348.37231617 272.04473538 353.09444346 275.75190902 357.62719727 281.32885742 C361.20588342 286.77468418 361.73272718 293.90073778 360.88500977 300.24291992 C358.40080497 309.23976972 353.9899818 314.54203614 345.88500977 319.24291992 C338.57723544 321.9002924 332.34270674 321.94221728 325.09204102 319.27416992 C318.39338863 316.14418013 315.18749403 311.77976288 312.51391602 305.00073242 C312.30637695 304.4206543 312.09883789 303.84057617 311.88500977 303.24291992 C311.22500977 303.24291992 310.56500977 303.24291992 309.88500977 303.24291992 C307.09182111 311.62248588 308.08300178 322.97762312 311.13110352 331.16479492 C311.97738532 333.49755097 312.44581587 335.80390139 312.88500977 338.24291992 C306.9423797 337.5871256 301.46526409 336.06250342 295.76000977 334.30541992 C294.87958008 334.04051758 293.99915039 333.77561523 293.09204102 333.50268555 C288.94689596 332.24288656 284.87123601 330.95484696 280.88500977 329.24291992 C281.43454308 325.56343601 282.65205575 324.3319022 285.57250977 322.11791992 C292.77491823 316.07719024 296.42524218 308.17576012 298.88500977 299.24291992 C298.30235352 299.60385742 297.71969727 299.96479492 297.11938477 300.33666992 C290.32242677 304.18400464 284.65138588 305.40161313 276.88500977 304.24291992 C272.4390423 302.83720962 268.75259016 300.82130685 264.88500977 298.24291992 C263.94021916 311.64509697 263.7491935 324.99702729 263.7469101 338.42952538 C263.74252156 344.5880789 263.71143805 350.74653437 263.68579102 356.9050293 C263.65545267 364.68623105 263.63269732 372.46726852 263.63452148 380.24853516 C263.63531222 386.59131597 263.6118101 392.93361514 263.57263947 399.27626991 C263.56225246 401.67255801 263.56060088 404.06890215 263.56829071 406.46520042 C263.65460981 436.3124941 263.65460981 436.3124941 253.88500977 448.24291992 C253.88500977 448.90291992 253.88500977 449.56291992 253.88500977 450.24291992 C267.53147722 454.9695351 281.19818332 459.63445597 294.88500977 464.24291992 C295.80364807 464.55275818 296.72228638 464.86259644 297.66876221 465.18182373 C302.89463957 466.94140873 308.12739017 468.67730601 313.37200928 470.38024902 C314.99258523 470.90942163 316.61101719 471.44521047 318.22711182 471.98791504 C327.71717877 475.16733335 335.92006791 477.87174895 345.68969727 474.18432617 C346.37290039 473.72928711 347.05610352 473.27424805 347.76000977 472.80541992 C348.45868164 472.37358398 349.15735352 471.94174805 349.87719727 471.49682617 C355.51246403 465.1708555 357.30294728 454.99533261 359.67797852 447.03588867 C360.19925575 445.30934052 360.19925575 445.30934052 360.73106384 443.5479126 C361.84881914 439.84325596 362.96061125 436.13683808 364.07250977 432.43041992 C364.84197309 429.87759709 365.61183947 427.32490139 366.38256836 424.77246094 C367.52083375 421.00267062 368.6590624 417.23287128 369.7958374 413.46263123 C372.49277451 404.52212533 375.22671755 395.59441761 378.01000977 386.68041992 C381.40046936 375.81266539 384.73528593 364.92919512 388.0378418 354.03442383 C388.91041196 351.15921714 389.7859417 348.28492656 390.66235352 345.41088867 C394.12937704 334.0463603 394.12937704 334.0463603 397.55297852 322.66870117 C397.81973389 321.77562256 398.08648926 320.88254395 398.36132812 319.96240234 C398.8569979 318.30021154 399.35141727 316.63764703 399.84423828 314.97460938 C400.93478517 311.31535762 402.06323543 307.67880338 403.29125977 304.06323242 C405.1983919 298.4019708 406.86414353 292.67007622 408.55801392 286.94216919 C411.70529179 276.30980661 414.99033719 265.74499382 418.56933594 255.24853516 C420.6113984 249.20870813 422.28483174 243.15232484 423.86157227 236.97338867 C425.24314042 231.93752002 426.91958244 227.02041037 428.60180664 222.07861328 C430.57380361 216.25762096 432.35553426 210.3991732 434.06054688 204.49511719 C435.43519454 199.74248069 436.886286 195.02027658 438.38500977 190.30541992 C440.39120411 183.97536936 442.18665358 177.6023668 443.9309082 171.19580078 C445.75786795 164.55407073 447.80785664 157.99173686 449.91796875 151.43505859 C450.15974854 150.68329346 450.40152832 149.93152832 450.65063477 149.15698242 C450.86494141 148.49649902 451.07924805 147.83601563 451.30004883 147.15551758 C453.28930209 140.65142323 454.2141319 134.39275917 451.19750977 128.05541992 C446.41280673 119.6821896 440.8099921 115.02534624 431.59985352 112.25463867 C429.73571921 111.77016313 427.87127982 111.28653938 426.00170898 110.82348633 C421.12035835 109.60879976 416.38995974 108.13067599 411.63500977 106.49291992 C402.91119039 103.50901213 394.09372066 100.88536019 385.24145508 98.31030273 C377.92221294 96.17321691 370.64551118 93.92194839 363.37840271 91.61543274 C354.98392566 88.95176421 346.57153865 86.34726956 338.15692139 83.74804688 C334.50479549 82.61991077 330.85307326 81.49047055 327.20132446 80.3611145 C325.36457157 79.79308103 323.52780012 79.22510757 321.69100952 78.65719604 C313.71261262 76.19026626 305.73586407 73.71805618 297.76000977 71.24291992 C296.60090088 70.88359375 295.44179199 70.52426758 294.24755859 70.15405273 C289.37180337 68.64149179 284.49783667 67.12413094 279.63110352 65.58276367 C278.86620605 65.34106445 278.10130859 65.09936523 277.31323242 64.8503418 C275.39492264 64.24292868 273.47778771 63.63180827 271.56079102 63.02026367 C269.02931181 62.14992758 269.02931181 62.14992758 266.88500977 62.24291992 Z M-48.60327148 64.55151367 C-49.74607826 64.91440239 -49.74607826 64.91440239 -50.91197205 65.28462219 C-52.55762945 65.80746359 -54.20288315 66.331577 -55.84777832 66.85681152 C-60.19671045 68.24526773 -64.54866163 69.62420831 -68.90014648 71.00463867 C-69.77404022 71.28215973 -70.64793396 71.55968079 -71.54830933 71.84561157 C-79.14505256 74.25682635 -86.75165421 76.63461791 -94.36499023 78.99291992 C-95.38117432 79.30801514 -96.3973584 79.62311035 -97.44433594 79.94775391 C-112.95354957 84.74900402 -128.47469146 89.51189735 -143.99505615 94.27694702 C-148.35844735 95.61669214 -152.72159501 96.95722937 -157.0847168 98.29785156 C-159.27861235 98.97172823 -161.47262357 99.64522846 -163.66674805 100.31835938 C-169.07232825 101.97690784 -174.47571449 103.6418141 -179.87475586 105.3215332 C-184.01815056 106.60791873 -188.17183036 107.84608665 -192.33959961 109.05102539 C-194.30120656 109.63445959 -196.26279592 110.21795294 -198.22436523 110.80151367 C-199.10739319 111.04611832 -199.99042114 111.29072296 -200.90020752 111.54273987 C-208.47951519 113.83602475 -214.39602528 118.02355437 -218.55249023 124.86791992 C-222.69402478 133.81363454 -221.34094023 141.75737645 -218.23999023 150.74291992 C-217.69860147 152.35672472 -217.15951293 153.97130313 -216.62280273 155.58666992 C-216.36249268 156.36913086 -216.10218262 157.1515918 -215.83398438 157.95776367 C-215.16200296 160.09350086 -214.58621739 162.2243638 -214.05639648 164.39916992 C-213.15559706 168.07712275 -212.08543912 171.63865581 -210.92749023 175.24291992 C-207.7461552 185.26339783 -204.84928647 195.36589982 -201.9230957 205.46313477 C-200.85323877 209.14331332 -199.76577718 212.81816078 -198.67749023 216.49291992 C-197.19053141 221.51939952 -195.73899846 226.55501874 -194.31030273 231.59838867 C-190.67708075 244.4197811 -186.96233669 257.20448605 -182.99267578 269.92626953 C-181.04664405 276.16894942 -179.16900988 282.42908588 -177.33215332 288.70457458 C-175.20845719 295.94894548 -173.04773826 303.18214348 -170.88452148 310.41479492 C-170.48969457 311.73516674 -170.09487349 313.0555403 -169.70005798 314.37591553 C-169.08419943 316.43545843 -168.46832741 318.4949973 -167.8524065 320.55452156 C-160.55847085 344.94590972 -153.27992386 369.34199879 -146.05942154 393.75523758 C-145.68000642 395.03799685 -145.30046706 396.32071937 -144.92080307 397.603405 C-141.1629492 410.29998854 -137.41814329 422.99762191 -133.91186523 435.76635742 C-133.67573517 436.62578445 -133.4396051 437.48521149 -133.19631958 438.37068176 C-132.14990313 442.19244663 -131.11617115 446.01697401 -130.10473633 449.84814453 C-127.12811856 462.04561326 -127.12811856 462.04561326 -119.55249023 471.68041992 C-118.97370117 472.15350586 -118.39491211 472.6265918 -117.79858398 473.11401367 C-113.05930411 476.29186027 -107.55096674 475.89665139 -102.11499023 475.24291992 C-95.59512859 473.63870266 -89.29855705 471.20360337 -82.98999023 468.93041992 C-81.18149367 468.2929455 -79.37232073 467.65738693 -77.5625 467.02368164 C-74.80059525 466.05615325 -72.03924261 465.08727385 -69.28010559 464.11187744 C-60.24148937 460.91709617 -51.15349825 457.87936349 -42.05249023 454.86791992 C-40.62452239 454.39376759 -39.19662303 453.91940894 -37.76879883 453.44482422 C-34.55146658 452.37569641 -31.33347001 451.3085892 -28.11499023 450.24291992 C-28.52128662 449.64326416 -28.92758301 449.0436084 -29.34619141 448.42578125 C-30.15020386 447.23118286 -30.15020386 447.23118286 -30.97045898 446.01245117 C-31.50050537 445.22717041 -32.03055176 444.44188965 -32.57666016 443.6328125 C-37.09300259 436.61639034 -39.22805552 430.95936738 -39.27320862 422.5737915 C-39.2781466 421.90475477 -39.28308457 421.23571804 -39.28817219 420.54640746 C-39.30352123 418.30625001 -39.31190075 416.06612117 -39.3203125 413.82592773 C-39.32989306 412.21944426 -39.33990325 410.61296331 -39.35031128 409.00648499 C-39.37734707 404.64530676 -39.39836383 400.28411773 -39.41831326 395.92290211 C-39.44018097 391.36514631 -39.46756583 386.80742378 -39.49436951 382.24969482 C-39.54428576 373.618975 -39.58922856 364.98823671 -39.63239187 356.35748076 C-39.68177335 346.53167634 -39.73668811 336.70590529 -39.79207146 326.88013315 C-39.90587513 306.66775984 -40.01271771 286.45535466 -40.11499023 266.24291992 C-55.39101968 285.17433383 -62.39798912 308.76890261 -67.11499023 332.24291992 C-70.91032513 331.68233576 -72.53891761 330.12858034 -75.13452148 327.37573242 C-75.9021582 326.57748047 -76.66979492 325.77922852 -77.46069336 324.95678711 C-78.27473633 324.10246094 -79.0887793 323.24813477 -79.92749023 322.36791992 C-87.78413468 314.31620982 -95.75379333 307.44672439 -105.11499023 301.24291992 C-106.12303711 300.54682617 -107.13108398 299.85073242 -108.16967773 299.13354492 C-113.66590521 295.44909326 -118.7380887 293.0200892 -125.11499023 291.24291992 C-123.84035352 286.13790283 -122.09015379 282.14315261 -119.42749023 277.55541992 C-110.12134435 260.7966962 -101.11499023 236.64028174 -101.11499023 217.24291992 C-95.83364162 218.54590958 -93.44438505 220.58890387 -89.92749023 224.68041992 C-88.96454112 225.77193807 -87.99964753 226.86174342 -87.03295898 227.94995117 C-86.54746582 228.50118652 -86.06197266 229.05242187 -85.56176758 229.62036133 C-72.80635867 243.92553305 -57.31895771 255.76166841 -40.11499023 264.24291992 C-39.92848056 254.01404874 -39.76530919 243.78487903 -39.61499023 233.55541992 C-39.60311298 232.74787388 -39.59123573 231.94032784 -39.57899857 231.1083107 C-39.04190545 194.04980282 -39.02982397 156.99185545 -39.05249023 119.93041992 C-39.05291447 119.21637135 -39.0533387 118.50232278 -39.05377579 117.76663637 C-39.06495632 99.25871899 -39.08522871 80.7508173 -39.11499023 62.24291992 C-42.42262429 62.24291992 -45.47737909 63.54825199 -48.60327148 64.55151367 Z " fill="#182935" transform="translate(527.114990234375,348.757080078125)"/>
<path d="M0 0 C2.33984375 0.19140625 2.33984375 0.19140625 5 1 C6.37890625 3.08984375 6.37890625 3.08984375 7.5625 5.9375 C15.42430685 22.91415233 27.72761686 37.91773549 39.82006836 52.05371094 C44.61229999 57.67178216 49.17814363 63.45684284 53.68896484 69.30224609 C54.55363037 70.42196379 55.42108691 71.53953252 56.29150391 72.65478516 C67.9651828 87.62370959 72.30361828 101.00441937 71 120 C69.76020544 129.09182675 64.71920933 137.30574395 57.5 142.95703125 C49.23527553 148.13508271 41.19494221 150.26428697 31.5546875 148.5703125 C23.74805545 146.58806424 16.30452561 142.14028688 11 136 C11 135.34 11 134.68 11 134 C10.34 134 9.68 134 9 134 C11.13729863 148.53363067 15.39659675 160.27090903 26.1796875 170.81640625 C28.2221607 173.26649749 28.75190034 174.8448195 29 178 C28 179 28 179 25.79173279 179.12025452 C24.81688431 179.11803391 23.84203583 179.11581329 22.83764648 179.11352539 C21.73658066 179.11344986 20.63551483 179.11337433 19.50108337 179.11329651 C18.3031868 179.10813522 17.10529022 179.10297394 15.87109375 179.09765625 C14.65172623 179.0962413 13.4323587 179.09482635 12.17604065 179.09336853 C8.2631693 179.08774967 4.35035419 179.07519396 0.4375 179.0625 C-2.20768147 179.05748743 -4.85286383 179.0529241 -7.49804688 179.04882812 C-13.99871726 179.03777411 -20.49935461 179.02101764 -27 179 C-27.6015625 176.62719727 -27.6015625 176.62719727 -28 174 C-26.375 171.96484375 -26.375 171.96484375 -24 169.9375 C-15.89233174 162.33498241 -9.63808259 151.90415247 -8.828125 140.6015625 C-8.81501609 138.73354225 -8.89637833 136.86519008 -9 135 C-9.38929688 135.44730469 -9.77859375 135.89460937 -10.1796875 136.35546875 C-15.97019013 142.6129474 -23.5566048 147.60186198 -32.2578125 148.23828125 C-43.50663512 148.45416774 -50.85014526 146.74351475 -59.21875 138.90625 C-65.77355061 131.89146338 -70.12569825 122.32500857 -70.4375 112.6875 C-69.43442539 90.6512046 -57.55603026 75.05655923 -43.2109375 59.453125 C-40.11194804 56.01467026 -37.21168986 52.42918675 -34.3046875 48.828125 C-32.77000572 46.94488838 -31.21253571 45.07999222 -29.6328125 43.234375 C-19.46958134 31.35021333 -10.61282547 18.65643344 -3 5 C-2.00577296 3.32988312 -1.00746371 1.66216565 0 0 Z " fill="#162732" transform="translate(637,501)"/>
<path d="M0 0 C5.62441334 5.8800685 8.25863614 11.96136139 9.0625 20 C8.37275784 28.55280282 4.86833108 36.771065 -1.25 42.875 C-2.88811683 43.92111234 -4.5505369 44.93181235 -6.25 45.875 C-4.83847656 46.02195312 -4.83847656 46.02195312 -3.3984375 46.171875 C6.94732377 47.41422314 12.55467523 49.71899404 19.26953125 57.73828125 C21.53526911 61.00835674 22.34064792 63.95266284 22.75 67.875 C22.87181641 68.94041016 22.87181641 68.94041016 22.99609375 70.02734375 C23.42266467 77.38246044 20.8388427 83.51793137 17 89.6875 C11.12725985 95.39710848 4.56320281 98.42933307 -3.625 99.1875 C-12.28548343 98.4409066 -18.39762626 95.34558223 -24.25 88.875 C-26.32060972 85.51025921 -27.25 83.80291315 -27.25 79.875 C-27.91 79.875 -28.57 79.875 -29.25 79.875 C-29.98881721 94.12813039 -29.98881721 94.12813039 -27.00390625 107.90234375 C-26.12136133 110.21159342 -25.60981221 112.43075844 -25.25 114.875 C-25.58 115.205 -25.91 115.535 -26.25 115.875 C-32.19138357 115.36008009 -37.69368344 113.68721123 -43.375 111.9375 C-44.25542969 111.67259766 -45.13585937 111.40769531 -46.04296875 111.13476562 C-48.45251776 110.40245171 -50.85184209 109.64364035 -53.25 108.875 C-54.25804687 108.56433594 -55.26609375 108.25367188 -56.3046875 107.93359375 C-58.25 106.875 -58.25 106.875 -59.0625 104.75 C-59.1553125 103.821875 -59.1553125 103.821875 -59.25 102.875 C-58.30640625 102.17890625 -58.30640625 102.17890625 -57.34375 101.46875 C-49.1419876 94.84805023 -45.42648253 87.38291415 -41.25 77.875 C-44.26407924 78.74316715 -44.26407924 78.74316715 -46.6875 80.4375 C-52.60412491 82.82491005 -58.83978034 82.92316275 -64.95703125 81.04296875 C-68.22822646 79.63196855 -70.71877905 78.40622095 -73.25 75.875 C-73.58 81.485 -73.91 87.095 -74.25 92.875 C-74.58 92.875 -74.91 92.875 -75.25 92.875 C-75.313252 87.73753187 -75.30057227 82.60349743 -75.26220703 77.46582031 C-75.25310991 74.78981048 -75.25992273 72.11621212 -75.28076172 69.44042969 C-75.31080113 65.31935306 -75.29679084 61.19995437 -75.26119995 57.07894897 C-75.2537547 55.40612126 -75.26028733 53.73317092 -75.28103638 52.06045532 C-75.43412113 38.5061534 -75.43412113 38.5061534 -72.5078125 34.47509766 C-65.80127555 29.30854619 -58.44138255 29.14086666 -50.25 29.875 C-47.2004567 30.89771269 -45.00864563 32.15735272 -42.25 33.875 C-41.26 34.37 -41.26 34.37 -40.25 34.875 C-40.745 33.4828125 -40.745 33.4828125 -41.25 32.0625 C-43.49785548 24.05754703 -43.09992488 15.30277027 -39.25 7.875 C-34.98775606 1.68538477 -30.07904919 -2.63913871 -22.8125 -4.875 C-14.11604835 -5.72343431 -7.41293529 -4.84691923 0 0 Z " fill="#746952" transform="translate(866.25,572.125)"/>
<path d="M0 0 C0.33 0 0.66 0 1 0 C1 49.5 1 99 1 150 C0.67 150 0.34 150 0 150 C-0.33 127.23 -0.66 104.46 -1 81 C-6.99968637 90.33249831 -6.99968637 90.33249831 -12.0625 100.0625 C-12.39411133 100.77801025 -12.72572266 101.49352051 -13.06738281 102.23071289 C-19.28226419 115.98689523 -23.03425921 130.2410782 -26 145 C-27.73510742 145.74316406 -27.73510742 145.74316406 -30 146 C-32.05200195 144.45214844 -32.05200195 144.45214844 -34.23828125 142.109375 C-35.05111572 141.25947998 -35.8639502 140.40958496 -36.70141602 139.53393555 C-37.56307373 138.61523682 -38.42473145 137.69653809 -39.3125 136.75 C-47.34545424 128.44673739 -55.36766096 121.34627731 -65 115 C-66.00675781 114.31679688 -67.01351563 113.63359375 -68.05078125 112.9296875 C-73.47744068 109.34193756 -78.95376848 106.40356364 -85 104 C-84.5169592 98.55544011 -83.14280733 94.99853673 -80.375 90.3125 C-70.09847203 72.04028105 -65.04136457 50.43681922 -61 30 C-58.921875 29.56640625 -58.921875 29.56640625 -56 30 C-53.44907454 32.03616825 -51.38592676 34.47892745 -49.25 36.9375 C-47.99700346 38.3263421 -46.74309965 39.71436622 -45.48828125 41.1015625 C-44.88580566 41.77606445 -44.28333008 42.45056641 -43.66259766 43.14550781 C-31.38812281 56.83668416 -16.65466602 66.60720039 -1 76 C-0.67 50.92 -0.34 25.84 0 0 Z " fill="#86432B" transform="translate(487,536)"/>
<path d="M0 0 C4.45623439 2.57845009 7.56420353 6.47875579 10.6875 10.5 C11.739375 9.4171875 11.739375 9.4171875 12.8125 8.3125 C18.74959418 2.40894872 23.77711144 -1.74314993 32.5 -1.9375 C39.35504568 -1.81117852 43.42487354 0.23737354 48.21484375 5.02734375 C53.57393832 11.13205148 54.21220829 15.78347926 54.046875 23.77734375 C52.88201276 35.84379713 45.57511749 43.9779643 37.6875 52.5 C37.11193359 53.1290625 36.53636719 53.758125 35.94335938 54.40625 C29.82918325 61.08348677 23.65663046 67.69501321 17.140625 73.984375 C15.46573577 75.64259343 15.46573577 75.64259343 13.6875 78.5 C11.4140625 79.05078125 11.4140625 79.05078125 8.6875 78.5 C6.58999205 76.60983882 4.86880496 74.82594066 3.0625 72.6875 C2.00350002 71.4837399 0.94225749 70.28194936 -0.12109375 69.08203125 C-0.91942627 68.17445068 -0.91942627 68.17445068 -1.73388672 67.24853516 C-4.05436374 64.67828207 -6.51655648 62.28858576 -9 59.875 C-19.57943083 49.37178985 -31.47813005 36.84401061 -31.75 21.1875 C-31.73827295 14.72746029 -30.83031651 10.2544104 -26.3125 5.5 C-19.07687343 -1.68812793 -9.84698421 -4.38287337 0 0 Z " fill="#874127" transform="translate(624.3125,878.5)"/>
<path d="M0 0 C0.89797806 -0.00281982 1.79595612 -0.00563965 2.72114563 -0.00854492 C3.70040512 -0.00652069 4.67966461 -0.00449646 5.68859863 -0.00241089 C6.72731613 -0.00416321 7.76603363 -0.00591553 8.83622742 -0.00772095 C12.29810226 -0.01214446 15.75992631 -0.00918954 19.22180176 -0.00582886 C21.66984059 -0.00650417 24.11787936 -0.00747608 26.56591797 -0.00872803 C31.73784005 -0.0102076 36.90974495 -0.00805099 42.08166504 -0.00338745 C48.54203456 0.00216806 55.00236159 -0.0009685 61.46272945 -0.00683403 C94.29680416 -0.03199085 127.10755111 0.30042541 159.93271065 1.06707382 C162.41629447 1.12496149 164.89990379 1.18155789 167.38352966 1.23760986 C171.23589644 1.32463393 175.08824796 1.41220419 178.94055176 1.50198364 C180.5693779 1.53912979 180.5693779 1.53912979 182.23110962 1.57702637 C187.11771907 1.7095885 190.52145543 1.96537637 194.50305176 5.12698364 C194.19055176 7.50198364 194.19055176 7.50198364 193.50305176 10.12698364 C166.88821287 27.87020957 87.5364963 14.37352972 56.14343262 14.42214966 C50.92033989 14.4312223 45.69749518 14.45265164 40.4744873 14.4836731 C34.02557642 14.52194232 27.57689082 14.54088691 21.12787056 14.54543114 C18.70652538 14.55028296 16.28518345 14.56185652 13.86390495 14.58046913 C10.52971758 14.60466409 7.19642972 14.60394048 3.86218262 14.59695435 C2.88030975 14.6097644 1.89843689 14.62257446 0.8868103 14.63577271 C-3.40493701 14.60283881 -5.85435146 14.50599438 -9.61314392 12.28901672 C-11.49694824 10.12698364 -11.49694824 10.12698364 -11.99694824 7.06448364 C-11.49694824 4.12698364 -11.49694824 4.12698364 -10.24694824 2.31448364 C-7.05228034 0.14667328 -3.78054393 0.00183486 0 0 Z " fill="#746A54" transform="translate(153.4969482421875,753.8730163574219)"/>
<path d="M0 0 C2.51880153 -0.00072103 5.03759792 -0.00287445 7.55639815 -0.00549722 C16.39113172 -0.01467679 25.22585042 -0.01884061 34.0605886 -0.01804566 C42.22400284 -0.01744363 50.38735129 -0.02803929 58.55074888 -0.04378933 C65.63006631 -0.05694892 72.7093624 -0.06222621 79.78869194 -0.06159025 C83.98642209 -0.06133817 88.18409324 -0.06402755 92.3818109 -0.0747683 C122.26419874 -0.14561454 122.26419874 -0.14561454 134.63529563 0.99416137 C135.82698466 1.09795844 135.82698466 1.09795844 137.04274821 1.20385242 C140.00448075 1.53595654 142.18448032 1.85239021 144.63378501 3.6116693 C145.62284446 5.16725707 145.62284446 5.16725707 145.43534446 7.22975707 C144.62284446 9.16725707 144.62284446 9.16725707 142.62284446 11.16725707 C135.90399772 12.17872841 129.15220222 12.46028426 122.36796165 12.72145629 C121.28434726 12.76356671 120.20073287 12.80567714 119.08428168 12.84906363 C105.95810934 13.31629812 92.83382665 13.3118288 79.70096946 13.30006957 C76.97796698 13.30029451 74.25496528 13.30171911 71.53196311 13.30296874 C65.85766199 13.30477023 60.18337403 13.3024412 54.50907493 13.29762816 C48.77306362 13.29281718 43.03707838 13.29279406 37.30106711 13.29762816 C-16.97049755 13.3419351 -16.97049755 13.3419351 -40.58028054 12.78444457 C-41.71342313 12.76172673 -41.71342313 12.76172673 -42.86945748 12.73854995 C-44.93138019 12.69502937 -46.99246474 12.63862363 -49.05391335 12.57692504 C-50.16889199 12.54629973 -51.28387063 12.51567443 -52.4326365 12.48412108 C-56.58814648 12.03694056 -59.4066083 11.13780432 -62.37715554 8.16725707 C-62.18965554 5.66725707 -62.18965554 5.66725707 -61.37715554 3.16725707 C-58.27008778 1.09587856 -57.42935463 0.89333433 -53.87625527 0.75909972 C-52.94431942 0.72121494 -52.01238357 0.68333016 -51.05220723 0.64429736 C-50.02224535 0.61408842 -48.99228347 0.58387948 -47.93111062 0.55275512 C-46.8320706 0.51522722 -45.73303058 0.47769933 -44.60068631 0.43903422 C-29.7381188 -0.01501223 -14.86804289 0.00240158 0 0 Z " fill="#716650" transform="translate(773.3771555423737,905.8327429294586)"/>
<path d="M0 0 C2.44152327 0.00005598 4.8830466 -0.00037694 7.3245697 -0.001297 C14.36558781 -0.00393466 21.40654787 -0.00019671 28.44755363 0.01369667 C30.61175769 0.01759378 32.77596484 0.02007564 34.9401722 0.02103233 C37.93367888 0.0231796 40.927098 0.03182973 43.92058563 0.04232025 C44.78108709 0.0418614 45.64158855 0.04140255 46.52816582 0.04092979 C50.99805456 0.06413741 55.4526516 0.21723585 59.91333771 0.5091629 C61.25648151 0.59420846 61.25648151 0.59420846 62.62675953 0.6809721 C65.36965056 1.27333479 66.364689 1.90313601 67.97258759 4.18758392 C67.86489465 10.21838843 67.86489465 10.21838843 65.41161346 12.88306427 C61.99015335 14.71304156 58.79502923 14.59826304 55.01067352 14.55989838 C54.2036134 14.56349523 53.39655327 14.56709208 52.56503677 14.57079792 C49.86214373 14.57882802 47.15982398 14.56502787 44.45696259 14.55086517 C42.52674565 14.5511509 40.5965286 14.5525501 38.66631317 14.55498505 C33.43928063 14.55685665 28.21251252 14.53814214 22.9855423 14.51399612 C19.72971723 14.50011432 16.47391727 14.49129787 13.21807098 14.48412323 C-18.1519272 14.41157997 -49.51752815 14.07717059 -80.88103485 13.43309402 C-83.77763145 13.37507954 -86.67428354 13.32189693 -89.57099152 13.26976776 C-94.10826558 13.18675995 -98.6449373 13.08822773 -103.18160248 12.97689438 C-104.83912053 12.93815594 -106.49675557 12.90409476 -108.15447235 12.87508011 C-110.41054969 12.8343315 -112.66543897 12.77550235 -114.9209671 12.71175385 C-116.81042053 12.66845192 -116.81042053 12.66845192 -118.73804474 12.62427521 C-122.22953839 12.16075 -124.18496219 11.21621474 -127.02741241 9.18758392 C-126.27741241 4.43758392 -126.27741241 4.43758392 -124.02741241 2.18758392 C-121.85617828 1.87114716 -121.85617828 1.87114716 -119.08844757 1.77693939 C-118.0316832 1.73706406 -116.97491882 1.69718872 -115.88613129 1.65610504 C-114.11915138 1.6059449 -114.11915138 1.6059449 -112.31647491 1.55477142 C-111.05820389 1.51307327 -109.79993286 1.47137512 -108.50353241 1.42841339 C-104.96887045 1.31426911 -101.43392382 1.21607997 -97.89866257 1.12252426 C-95.65287733 1.06259633 -93.40721068 0.99920059 -91.16153717 0.93523407 C-60.77906269 0.08479664 -30.39264489 -0.00082236 0 0 Z " fill="#746954" transform="translate(1059.0274124145508,753.8124160766602)"/>
<path d="M0 0 C4.11411274 0.00257863 8.22822356 0.00017129 12.34233642 -0.00138617 C19.23819933 -0.0031911 26.13405144 -0.00084499 33.02991271 0.00395441 C40.95132245 0.00940462 48.87270647 0.00762205 56.7941156 0.00212801 C63.65850035 -0.00243838 70.52287746 -0.00303687 77.38726324 -0.00043333 C81.45974321 0.0011088 85.53221116 0.00138075 89.60469031 -0.00196981 C134.72354047 -0.03332762 134.72354047 -0.03332762 139.19136596 2.51661921 C140.76941466 4.1343255 140.76941466 4.1343255 141.14441466 6.6968255 C140.76941466 9.1343255 140.76941466 9.1343255 138.76941466 11.1343255 C131.14244146 12.71566966 122.89753585 12.4510436 115.14050841 12.68510675 C114.11274197 12.71632844 114.11274197 12.71632844 113.06421256 12.74818087 C91.15263269 13.3908007 69.22711912 13.32149994 47.30823302 13.31962824 C42.34009691 13.31954714 37.37205333 13.32648064 32.40393615 13.34013605 C7.69582517 13.4068837 -16.9852309 13.37927969 -41.67199159 12.24760675 C-42.57194289 12.20865982 -43.4718942 12.16971289 -44.39911675 12.12958574 C-46.88480577 12.01838347 -49.36923142 11.89285253 -51.85387635 11.76054621 C-52.5808755 11.72770596 -53.30787465 11.6948657 -54.05690408 11.66103029 C-58.99847943 11.36643141 -58.99847943 11.36643141 -61.23058534 9.1343255 C-61.48058534 6.6343255 -61.48058534 6.6343255 -61.23058534 4.1343255 C-57.16481775 0.06855792 -51.08890802 0.80651886 -45.64586854 0.58012629 C-44.64306761 0.53801586 -43.64026668 0.49590544 -42.60707784 0.45251894 C-28.41069594 -0.07868998 -14.20401656 -0.01173438 0 0 Z " fill="#70644E" transform="translate(419.2305853366852,905.865674495697)"/>
<path d="M0 0 C1.3953644 2.79072879 2.39193629 4.99674381 3.26171875 7.90625 C6.1869636 17.37118917 9.47502652 25.68820069 15 34 C15.54398438 34.87011719 16.08796875 35.74023438 16.6484375 36.63671875 C27.89796261 53.88070912 46.7941846 63.91330595 66.5 68.375 C67.655 68.58125 68.81 68.7875 70 69 C70 69.33 70 69.66 70 70 C46.9 70 23.8 70 0 70 C0 46.9 0 23.8 0 0 Z " fill="#040303" transform="translate(0,1184)"/>
<path d="M0 0 C0.33 0 0.66 0 1 0 C1 23.1 1 46.2 1 70 C-22.1 70 -45.2 70 -69 70 C-65 68 -65 68 -61.5625 67.1875 C-49.1537845 64.1425569 -39.16779872 58.50286364 -29 51 C-28.14277344 50.37351562 -27.28554687 49.74703125 -26.40234375 49.1015625 C-19.30003814 43.36460312 -14.6740788 35.72644981 -10 28 C-9.48308594 27.15566406 -8.96617188 26.31132813 -8.43359375 25.44140625 C-4.08764929 17.58055999 -2.21244444 8.6426553 0 0 Z " fill="#030302" transform="translate(1253,1184)"/>
<path d="M0 0 C23.1 0 46.2 0 70 0 C70 23.1 70 46.2 70 70 C68.08948346 66.17896692 66.88081068 62.44584798 65.6875 58.375 C62.99623691 49.49654416 59.46699185 41.55731227 54 34 C53.49726562 33.30132812 52.99453125 32.60265625 52.4765625 31.8828125 C40.47619094 15.75561634 21.49554578 4.51633442 1.66015625 1.2265625 C1.11230469 1.15179688 0.56445312 1.07703125 0 1 C0 0.67 0 0.34 0 0 Z " fill="#040303" transform="translate(1184,0)"/>
<path d="M0 0 C23.1 0 46.2 0 70 0 C66.82963407 2.11357729 65.18944982 2.39143096 61.5 3 C41.42258757 7.44667524 24.01880054 21.02261125 12.9375 38 C7.03764482 47.85218535 3.02026568 58.68651217 1 70 C0.67 70 0.34 70 0 70 C0 46.9 0 23.8 0 0 Z " fill="#030302" transform="translate(0,0)"/>
<path d="M0 0 C3.01050916 1.96591439 5.44033859 4.4891363 8 7 C9.74887206 8.56376238 11.49899534 10.12612595 13.25 11.6875 C20.00185734 17.82443409 26.39047944 24.33454972 32.79394531 30.83081055 C37.09278045 35.1742306 41.45186373 39.33986836 46.08837891 43.31982422 C49.38563656 46.21787367 52.47077626 49.32330559 55.5625 52.4375 C56.21871338 53.09564697 56.87492676 53.75379395 57.55102539 54.43188477 C61.33195173 58.24677576 64.99806256 62.10916495 68.4375 66.23828125 C70.3108462 68.35047909 72.36585845 70.20801225 74.4375 72.125 C77.93332267 75.53325871 77.93332267 75.53325871 78.5 79.5 C78.335 80.325 78.17 81.15 78 82 C75.8828125 82.8046875 75.8828125 82.8046875 73 83 C70.70904758 81.4504168 68.87814792 79.98857569 66.875 78.125 C65.72090058 77.09800404 64.56593911 76.07197605 63.41015625 75.046875 C62.54994873 74.2724707 62.54994873 74.2724707 61.67236328 73.48242188 C59.28381411 71.3651561 56.80181237 69.37211547 54.3125 67.375 C49.91342167 63.79716785 45.70449622 60.0544148 41.515625 56.234375 C38.98669705 53.98818434 36.38950086 51.86468782 33.75 49.75 C27.99053574 45.09341188 22.62051301 40.07165823 17.22265625 35.0078125 C14.18414463 32.15970141 11.07970272 29.39993604 7.9296875 26.67578125 C4.6967239 23.86820759 1.50740956 21.01428094 -1.65625 18.12890625 C-3.07268747 16.84230888 -4.50589159 15.57340491 -5.96875 14.33984375 C-8.95372759 11.69982819 -9.95259265 10.31078151 -10.5625 6.3125 C-10 3 -10 3 -8.9375 1.0625 C-5.65815876 -0.73584842 -3.69194477 -0.60523685 0 0 Z " fill="#6F634E" transform="translate(207,524)"/>
<path d="M0 0 C2.71681358 1.22580743 5.0921432 2.47114246 7.625 4 C9.20482731 4.91562035 10.78563033 5.8295584 12.3671875 6.7421875 C13.24729492 7.25491211 14.12740234 7.76763672 15.03417969 8.29589844 C20.26588077 11.30193018 25.56571833 14.18546035 30.85614014 17.08642578 C45.36427966 25.04254754 59.74556119 33.17584306 73.9375 41.6875 C75.54334961 42.64366211 75.54334961 42.64366211 77.18164062 43.61914062 C82.62510507 46.88117962 87.90760575 50.21149048 93 54 C92.125 58.875 92.125 58.875 91 60 C85.20694929 59.61896995 80.84379258 57.78913294 75.69921875 55.203125 C74.913797 54.81804276 74.12837524 54.43296051 73.31915283 54.03620911 C70.77046045 52.78363121 68.22895226 51.51719464 65.6875 50.25 C63.92102201 49.37742901 62.15417341 48.50560793 60.38696289 47.63452148 C56.03660194 45.48731484 51.69203872 43.32865374 47.34887695 41.16693115 C44.04438055 39.52524456 40.73315113 37.89749975 37.421875 36.26953125 C-4.32971019 15.67028981 -4.32971019 15.67028981 -11 9 C-11.5109181 5.76418539 -11.28519568 4.42208961 -9.4375 1.6875 C-6.05223001 -0.65614845 -4.07945529 -0.3791935 0 0 Z " fill="#70654F" transform="translate(209,637)"/>
<path d="M0 0 C3.51733398 0.65820312 3.51733398 0.65820312 5.51733398 2.28320312 C6.86950683 5.49461362 7.04308459 7.17099796 6.51733398 10.65820312 C4.49667945 13.46432551 2.04073369 15.74354261 -0.48266602 18.09570312 C-1.17166992 18.76021484 -1.86067383 19.42472656 -2.57055664 20.109375 C-6.54413654 23.9178581 -10.59018094 27.63696574 -14.79516602 31.18945312 C-16.61207034 32.77083282 -18.29477882 34.44017509 -19.98266602 36.15820312 C-22.9039739 39.12536113 -25.96258275 41.85879284 -29.11547852 44.57617188 C-32.11989151 47.21866713 -35.05000674 49.93660486 -37.98266602 52.65820312 C-42.74888541 57.0733198 -47.55112538 61.42746037 -52.48266602 65.65820312 C-53.00505859 66.10695801 -53.52745117 66.55571289 -54.06567383 67.01806641 C-61.53962703 73.43757729 -61.53962703 73.43757729 -64.73291016 76.15039062 C-65.95952735 77.20740023 -67.17113383 78.28196298 -68.37109375 79.36914062 C-69.29257202 80.19478516 -69.29257202 80.19478516 -70.23266602 81.03710938 C-71.06217773 81.79423218 -71.06217773 81.79423218 -71.90844727 82.56665039 C-73.48266602 83.65820312 -73.48266602 83.65820312 -76.42016602 83.53320312 C-78.48266602 82.65820312 -78.48266602 82.65820312 -79.40454102 80.63476562 C-79.49772727 77.08436923 -78.96671701 76.63584156 -76.68579102 74.05664062 C-75.38349161 72.70052719 -74.06466508 71.36015674 -72.73266602 70.03320312 C-72.04688477 69.32679688 -71.36110352 68.62039063 -70.65454102 67.89257812 C-68.61320879 65.79792752 -66.55234258 63.72481502 -64.48266602 61.65820312 C-63.92772461 61.10165039 -63.3727832 60.54509766 -62.80102539 59.97167969 C-60.56206681 57.72840989 -58.31521713 55.4950478 -56.04516602 53.28320312 C-54.08038759 51.27050328 -52.24938508 49.24847466 -50.421875 47.1171875 C-43.89835339 39.63896024 -36.86438833 32.6313127 -29.89388371 25.57279205 C-27.46598529 23.11418916 -25.04678316 20.64819462 -22.64599609 18.16308594 C-19.85486185 15.27427198 -17.03170134 12.41879839 -14.20532227 9.56445312 C-13.3498732 8.67085083 -12.49442413 7.77724854 -11.61305237 6.85656738 C-4.85775954 0.1229484 -4.85775954 0.1229484 0 0 Z " fill="#6F644F" transform="translate(1072.482666015625,523.341796875)"/>
<path d="M0 0 C2.75181556 1.95523737 3.80167555 3.14059407 4.5625 6.4375 C3.7570892 10.10659364 1.94026287 11.8611532 -1 14 C-2.63562248 14.9572641 -4.29186979 15.87966427 -5.9609375 16.77734375 C-7.4305896 17.56782104 -7.4305896 17.56782104 -8.92993164 18.37426758 C-13.87330239 20.99199369 -18.84065294 23.56187878 -23.8125 26.125 C-32.11902388 30.42177715 -40.36922837 34.8036014 -48.5625 39.3125 C-55.46991673 43.11281047 -62.41138906 46.79294902 -69.49365234 50.25708008 C-72.60455021 51.78253078 -75.67184284 53.34979363 -78.6953125 55.04296875 C-79.28497803 55.37192139 -79.87464355 55.70087402 -80.48217773 56.03979492 C-82.07018631 56.93394492 -83.65065263 57.84145363 -85.23046875 58.75 C-88.11389694 60.05140624 -89.87931094 60.35474973 -93 60 C-94 59 -94 59 -94.4375 56.75 C-93.80049854 52.74599083 -91.10445689 51.28674836 -88 49 C-85.33899885 47.17160826 -82.61705966 45.45386138 -79.875 43.75 C-78.65478149 42.98671387 -78.65478149 42.98671387 -77.40991211 42.20800781 C-74.61148532 40.46400444 -71.80672249 38.73062001 -69 37 C-67.95376465 36.35417969 -66.9075293 35.70835937 -65.82958984 35.04296875 C-49.32068263 24.87766076 -32.62892431 15.0730679 -15.73901367 5.55419922 C-13.44644333 4.25332545 -11.17527524 2.92318352 -8.90625 1.58203125 C-5.56289917 -0.23793795 -3.74522512 -0.6658178 0 0 Z " fill="#70644F" transform="translate(1072,637)"/>
<path d="M0 0 C1.43965118 0.02545395 1.43965118 0.02545395 2.90838623 0.05142212 C3.9933136 0.06829071 5.07824097 0.0851593 6.19604492 0.10253906 C7.37825623 0.12643707 8.56046753 0.15033508 9.77850342 0.17495728 C10.98601257 0.19619659 12.19352173 0.21743591 13.43762207 0.23931885 C16.00002583 0.28569261 18.56238426 0.33462934 21.12469482 0.38589478 C25.04435837 0.46340635 28.96410169 0.53071992 32.88397217 0.59683228 C35.36966078 0.64309209 37.85533838 0.68994772 40.34100342 0.73745728 C41.5151178 0.75730682 42.68923218 0.77715637 43.89892578 0.79760742 C44.99646179 0.82078033 46.0939978 0.84395325 47.22479248 0.86782837 C48.66921722 0.8956691 48.66921722 0.8956691 50.14282227 0.92407227 C52.78672697 1.08664314 55.24460685 1.50542472 57.82537842 2.08901978 C57.82537842 2.41901978 57.82537842 2.74901978 57.82537842 3.08901978 C45.36705578 3.11999036 32.90873418 3.14012602 20.45037842 3.15151978 C19.5210638 3.15237579 18.59174919 3.15323181 17.63427353 3.15411377 C-9.36861328 3.17605666 -36.36281704 3.03887309 -63.36212158 2.58901978 C-64.08028801 2.57706196 -64.79845444 2.56510414 -65.53838348 2.55278397 C-74.0840085 2.40949776 -82.62941846 2.25563131 -91.17462158 2.08901978 C-91.17462158 1.75901978 -91.17462158 1.42901978 -91.17462158 1.08901978 C-90.07437149 1.09124039 -88.9741214 1.093461 -87.8405304 1.0957489 C-77.49539338 1.11597944 -67.15026035 1.13099149 -56.80510807 1.14083195 C-51.48596945 1.146061 -46.16684674 1.15315904 -40.84771729 1.16445923 C-35.71898173 1.17528733 -30.59026152 1.18129644 -25.46151543 1.18389702 C-23.50020544 1.18575141 -21.53889634 1.18937228 -19.57759285 1.19474983 C-16.84046711 1.20195924 -14.10340561 1.20301076 -11.36627197 1.20254517 C-10.54700226 1.20614044 -9.72773254 1.20973572 -8.88363647 1.21343994 C-5.49896694 1.20716782 -3.01711319 0.12350781 0 0 Z " fill="#C2C0BA" transform="translate(708.1746215820313,348.9109802246094)"/>
<path d="M0 0 C0 1.32 0 2.64 0 4 C2.31 4 4.62 4 7 4 C7.495 5.98 7.495 5.98 8 8 C6.68 8 5.36 8 4 8 C4 8.99 4 9.98 4 11 C-6.36503256 11.91987611 -16.60330359 12.1132812 -27 12 C-27 11.67 -27 11.34 -27 11 C-25.99839844 10.95101562 -24.99679687 10.90203125 -23.96484375 10.8515625 C-22.62237241 10.77645921 -21.2799257 10.70091474 -19.9375 10.625 C-18.62652344 10.55539062 -17.31554687 10.48578125 -15.96484375 10.4140625 C-12.01863043 10.00194564 -8.75882927 9.20243433 -5 8 C-5 7.67 -5 7.34 -5 7 C-5.62648438 6.93941406 -6.25296875 6.87882813 -6.8984375 6.81640625 C-7.71570313 6.73261719 -8.53296875 6.64882813 -9.375 6.5625 C-10.18710937 6.48128906 -10.99921875 6.40007813 -11.8359375 6.31640625 C-14 6 -14 6 -16 5 C-16 4.34 -16 3.68 -16 3 C-27.385 2.505 -27.385 2.505 -39 2 C-39 1.67 -39 1.34 -39 1 C-25.99123875 0.35708541 -13.02640027 -0.17015617 0 0 Z " fill="#796E58" transform="translate(403,906)"/>
<path d="M0 0 C4.90722293 -0.02500545 9.81440752 -0.04300225 14.72167969 -0.05493164 C16.38574877 -0.05991292 18.04981359 -0.06670037 19.71386719 -0.07543945 C29.19649973 -0.12393667 38.55909079 -0.0400008 48 1 C48 1.66 48 2.32 48 3 C32.31367722 3.17386318 16.67235593 2.63411232 1 2 C0.67 1.34 0.34 0.68 0 0 Z " fill="#7D725D" transform="translate(860,906)"/>
<path d="M0 0 C0.33 0 0.66 0 1 0 C1 13.2 1 26.4 1 40 C0.67 40 0.34 40 0 40 C-0.33 29.11 -0.66 18.22 -1 7 C-2.32 8.98 -3.64 10.96 -5 13 C-5.66 13 -6.32 13 -7 13 C-5.58795406 7.73691968 -3.31008693 4.2437012 0 0 Z " fill="#ECDFD2" transform="translate(485,617)"/>
<path d="M0 0 C4.17491752 4.00387807 7.81436586 8.30794843 11.4375 12.8125 C11.98470703 13.48603516 12.53191406 14.15957031 13.09570312 14.85351562 C16.84274719 19.48743402 20.45571035 24.2094898 24 29 C23.34 29.66 22.68 30.32 22 31 C18 25.25 18 25.25 18 23 C17.34 23 16.68 23 16 23 C12.08672304 19.28054101 8.48539285 15.28139679 7 10 C6.34 10 5.68 10 5 10 C1.125 3.375 1.125 3.375 0 0 Z " fill="#222C36" transform="translate(657,530)"/>
<path d="M0 0 C0.33 0 0.66 0 1 0 C1.33 7.59 1.66 15.18 2 23 C2.33 23 2.66 23 3 23 C3 28.94 3 34.88 3 41 C1.515 41.495 1.515 41.495 0 42 C0 28.14 0 14.28 0 0 Z " fill="#D9D1C7" transform="translate(791,665)"/>
<path d="M0 0 C0.91120605 0.01047363 1.82241211 0.02094727 2.76123047 0.03173828 C3.74736328 0.03818359 4.73349609 0.04462891 5.74951172 0.05126953 C7.29832031 0.07640625 7.29832031 0.07640625 8.87841797 0.10205078 C9.91869141 0.11107422 10.95896484 0.12009766 12.03076172 0.12939453 C14.60520889 0.15301331 17.17920009 0.18594929 19.75341797 0.22705078 C19.75341797 0.55705078 19.75341797 0.88705078 19.75341797 1.22705078 C10.34841797 1.72205078 10.34841797 1.72205078 0.75341797 2.22705078 C0.42341797 2.88705078 0.09341797 3.54705078 -0.24658203 4.22705078 C-0.90658203 4.22705078 -1.56658203 4.22705078 -2.24658203 4.22705078 C-1.91658203 5.54705078 -1.58658203 6.86705078 -1.24658203 8.22705078 C-2.56658203 7.89705078 -3.88658203 7.56705078 -5.24658203 7.22705078 C-4.17204469 0.42164764 -4.17204469 0.42164764 0 0 Z " fill="#8C826D" transform="translate(937.24658203125,755.77294921875)"/>
<path d="M0 0 C3.15204981 1.39347376 5.26171773 3.02485079 7.671875 5.4765625 C8.33574219 6.146875 8.99960938 6.8171875 9.68359375 7.5078125 C10.36550781 8.20648437 11.04742187 8.90515625 11.75 9.625 C12.44738281 10.33140625 13.14476562 11.0378125 13.86328125 11.765625 C15.58012488 13.50598703 17.29211832 15.25084981 19 17 C15.07290865 17 14.1810287 15.72099538 11.3125 13.125 C10.50425781 12.40570312 9.69601563 11.68640625 8.86328125 10.9453125 C7 9 7 9 7 7 C6.401875 6.731875 5.80375 6.46375 5.1875 6.1875 C3.00152146 5.00082594 1.58667406 3.90400887 0 2 C0 1.34 0 0.68 0 0 Z " fill="#EEE4D5" transform="translate(242,556)"/>
<path d="M0 0 C0.66 0 1.32 0 2 0 C1.67 1.65 1.34 3.3 1 5 C-3.29 5 -7.58 5 -12 5 C-12 4.01 -12 3.02 -12 2 C-11.21753906 1.93941406 -10.43507813 1.87882813 -9.62890625 1.81640625 C-8.61699219 1.73261719 -7.60507812 1.64882813 -6.5625 1.5625 C-5.55316406 1.48128906 -4.54382813 1.40007813 -3.50390625 1.31640625 C-1.06359221 1.26788532 -1.06359221 1.26788532 0 0 Z " fill="#3B4851" transform="translate(664,675)"/>
<path d="M0 0 C0.66 0.66 1.32 1.32 2 2 C1.01 3.32 0.02 4.64 -1 6 C0.98 5.34 2.96 4.68 5 4 C2.63404067 6.61500768 0.13950774 8.38999603 -3 10 C-3.66 9.67 -4.32 9.34 -5 9 C-4.34 7.68 -3.68 6.36 -3 5 C-4.32 4.67 -5.64 4.34 -7 4 C-4.69 2.68 -2.38 1.36 0 0 Z " fill="#776D57" transform="translate(1008,671)"/>
<path d="M0 0 C2.28062828 3.42094242 2.21925007 4.68187222 2.125 8.6875 C2.10695313 9.68136719 2.08890625 10.67523437 2.0703125 11.69921875 C2.03550781 12.83810547 2.03550781 12.83810547 2 14 C1.01 14 0.02 14 -1 14 C-1.02705729 12.22925083 -1.04642195 10.45838289 -1.0625 8.6875 C-1.07410156 7.70136719 -1.08570313 6.71523438 -1.09765625 5.69921875 C-1 3 -1 3 0 0 Z " fill="#24323C" transform="translate(568,605)"/>
<path d="M0 0 C0.598125 0.226875 1.19625 0.45375 1.8125 0.6875 C1.1525 1.265 0.4925 1.8425 -0.1875 2.4375 C-2.63040923 4.68403977 -2.63040923 4.68403977 -2.1875 8.6875 C-0.8675 9.3475 0.4525 10.0075 1.8125 10.6875 C-0.5625 10.8125 -0.5625 10.8125 -3.1875 10.6875 C-5.1875 8.6875 -5.1875 8.6875 -5.5 5.75 C-5.1875 2.6875 -5.1875 2.6875 -3.9375 0.75 C-2.1875 -0.3125 -2.1875 -0.3125 0 0 Z " fill="#776C57" transform="translate(147.1875,755.3125)"/>
<path d="M0 0 C2 1 2 1 3 3 C2.113125 3.5775 1.22625 4.155 0.3125 4.75 C-2.59042244 6.68068476 -5.30768649 8.78280064 -8 11 C-8 8 -8 8 -6.25 5.95703125 C-5.5075 5.24933594 -4.765 4.54164063 -4 3.8125 C-2.88625 2.73935547 -2.88625 2.73935547 -1.75 1.64453125 C-1.1725 1.10183594 -0.595 0.55914063 0 0 Z " fill="#7A705C" transform="translate(1068,524)"/>
<path d="M0 0 C0.89506817 2.96986552 1.03315169 5.25639788 0.66015625 8.328125 C0.56669922 9.12734375 0.47324219 9.9265625 0.37695312 10.75 C0.27318359 11.575 0.16941406 12.4 0.0625 13.25 C-0.03740234 14.09046875 -0.13730469 14.9309375 -0.24023438 15.796875 C-0.48704258 17.86536277 -0.74266284 19.93279572 -1 22 C-1.33 22 -1.66 22 -2 22 C-2.05807043 18.89591193 -2.09361914 15.7919636 -2.125 12.6875 C-2.14175781 11.80642578 -2.15851563 10.92535156 -2.17578125 10.01757812 C-2.18222656 9.17001953 -2.18867188 8.32246094 -2.1953125 7.44921875 C-2.20578613 6.66893311 -2.21625977 5.88864746 -2.22705078 5.0847168 C-2 3 -2 3 0 0 Z " fill="#0E202A" transform="translate(491,376)"/>
<path d="M0 0 C3 2 3 2 3.68359375 3.640625 C4.13558714 7.01104487 4.10418329 10.35762161 4.0625 13.75 C4.05798828 14.44738281 4.05347656 15.14476562 4.04882812 15.86328125 C4.0371002 17.57555803 4.01916653 19.28779033 4 21 C3.67 21 3.34 21 3 21 C2 14 1 7 0 0 Z " fill="#333F45" transform="translate(790,377)"/>
<path d="M0 0 C1.33998047 0.06960938 1.33998047 0.06960938 2.70703125 0.140625 C3.60808594 0.17671875 4.50914062 0.2128125 5.4375 0.25 C6.46810547 0.31960938 6.46810547 0.31960938 7.51953125 0.390625 C7.84953125 1.050625 8.17953125 1.710625 8.51953125 2.390625 C6.81796875 2.6071875 6.81796875 2.6071875 5.08203125 2.828125 C1.71175924 3.00233978 1.71175924 3.00233978 0.51953125 4.390625 C-1.48005239 4.43143283 -3.48092129 4.43316856 -5.48046875 4.390625 C-3.17521711 0.50003419 -3.17521711 0.50003419 0 0 Z " fill="#685D47" transform="translate(390.48046875,912.609375)"/>
<path d="M0 0 C0.33 0 0.66 0 1 0 C1.3457886 5.64788053 0.56064053 9.07569129 -2 14 C-2.99 14.495 -2.99 14.495 -4 15 C-3.52229477 13.06213915 -3.04278429 11.12472326 -2.5625 9.1875 C-2.29566406 8.10855469 -2.02882813 7.02960937 -1.75390625 5.91796875 C-1.23922588 3.9259157 -0.65062825 1.95188476 0 0 Z " fill="#37424B" transform="translate(889,785)"/>
<path d="M0 0 C0.66 0.66 1.32 1.32 2 2 C1.67889311 5.53217579 1.12183498 8.63449506 0 12 C-0.99 12 -1.98 12 -3 12 C-2.01 8.04 -1.02 4.08 0 0 Z " fill="#E8E2D8" transform="translate(953,617)"/>
<path d="M0 0 C0.66 0.99 1.32 1.98 2 3 C0.20578369 7.0369867 -1.20551875 9.64480474 -5 12 C-5 7.98905773 -3.23899001 6.25671275 -1 3 C-0.67 2.01 -0.34 1.02 0 0 Z " fill="#263540" transform="translate(776,781)"/>
<path d="M0 0 C3 1 3 1 4.1875 3 C5.28113733 7.03804554 5.16301345 10.84315708 5 15 C4.67 15 4.34 15 4 15 C4 13.02 4 11.04 4 9 C3.34 9 2.68 9 2 9 C1.34 6.03 0.68 3.06 0 0 Z " fill="#CCC9C2" transform="translate(975,475)"/>
<path d="M0 0 C1.04005702 3.38018531 1.08004482 6.4780279 1 10 C0.01 10 -0.98 10 -2 10 C-1.67 11.32 -1.34 12.64 -1 14 C-1.99 14.33 -2.98 14.66 -4 15 C-3.52229477 13.06213915 -3.04278429 11.12472326 -2.5625 9.1875 C-2.29566406 8.10855469 -2.02882813 7.02960937 -1.75390625 5.91796875 C-1.23922588 3.9259157 -0.65062825 1.95188476 0 0 Z " fill="#C1BDB6" transform="translate(912,750)"/>
<path d="M0 0 C0.66 0.33 1.32 0.66 2 1 C2 3.31 2 5.62 2 8 C1.01 8.33 0.02 8.66 -1 9 C-1.09765625 2.84765625 -1.09765625 2.84765625 -1 1 C-0.67 0.67 -0.34 0.34 0 0 Z " fill="#7D725D" transform="translate(873,588)"/>
<path d="M0 0 C-0.33 0.99 -0.66 1.98 -1 3 C-4.3 3.33 -7.6 3.66 -11 4 C-6.75040461 0.81280346 -5.10723071 0 0 0 Z " fill="#E6E0D5" transform="translate(524,362)"/>
<path d="M0 0 C0.66 0.66 1.32 1.32 2 2 C-0.31 4.31 -2.62 6.62 -5 9 C-5.66 8.34 -6.32 7.68 -7 7 C-4.69 4.69 -2.38 2.38 0 0 Z " fill="#F0E1D5" transform="translate(646,947)"/>
<path d="M0 0 C0.33 0 0.66 0 1 0 C1.10884119 1.41493551 1.18597617 2.83232943 1.25 4.25 C1.29640625 5.03890625 1.3428125 5.8278125 1.390625 6.640625 C1 9 1 9 -3 13 C-2.01 8.71 -1.02 4.42 0 0 Z " fill="#292624" transform="translate(1253,1184)"/>
<path d="M0 0 C0 2.97 0 5.94 0 9 C-0.433125 8.34 -0.86625 7.68 -1.3125 7 C-2.1478125 6.01 -2.1478125 6.01 -3 5 C-3.99 5 -4.98 5 -6 5 C-1.125 0 -1.125 0 0 0 Z " fill="#DCD8D2" transform="translate(629,635)"/>
<path d="M0 0 C4.72727273 4.36363636 4.72727273 4.36363636 5.9375 7.1875 C5.9684375 8.0846875 5.9684375 8.0846875 6 9 C5.34 9.66 4.68 10.32 4 11 C3.32880451 9.5437455 2.66318193 8.08492133 2 6.625 C1.62875 5.81289063 1.2575 5.00078125 0.875 4.1640625 C0 2 0 2 0 0 Z " fill="#26343D" transform="translate(696,579)"/>
<path d="M0 0 C0.66 0.33 1.32 0.66 2 1 C-0.33333333 3.33333333 -2.66666667 5.66666667 -5 8 C-5.99 7.67 -6.98 7.34 -8 7 C-5.36 4.69 -2.72 2.38 0 0 Z " fill="#DCDAD8" transform="translate(319,463)"/>
<path d="M0 0 C0.99 0.33 1.98 0.66 3 1 C2.34 1 1.68 1 1 1 C0.566875 2.423125 0.566875 2.423125 0.125 3.875 C-1 7 -1 7 -3 9 C-3.33 8.01 -3.66 7.02 -4 6 C-2.0625 2.8125 -2.0625 2.8125 0 0 Z " fill="#2A343D" transform="translate(301,464)"/>
<path d="M0 0 C0.89694794 3.58779175 1.08304117 6.34618837 1 10 C-0.98 10.99 -0.98 10.99 -3 12 C-2.01 8.04 -1.02 4.08 0 0 Z " fill="#BFBCB6" transform="translate(929,694)"/>
<path d="M0 0 C1.32 0.66 2.64 1.32 4 2 C3.67 3.32 3.34 4.64 3 6 C1.02 6 -0.96 6 -3 6 C-1.68 5.67 -0.36 5.34 1 5 C0.67 3.35 0.34 1.7 0 0 Z " fill="#80755F" transform="translate(298,689)"/>
<path d="M0 0 C0 0.99 0 1.98 0 3 C-2.875 3.625 -2.875 3.625 -6 4 C-6.66 3.34 -7.32 2.68 -8 2 C-2.25 0 -2.25 0 0 0 Z " fill="#314149" transform="translate(447,816)"/>
<path d="M0 0 C0 0.99 0 1.98 0 3 C-2.875 3.625 -2.875 3.625 -6 4 C-6.66 3.34 -7.32 2.68 -8 2 C-2.25 0 -2.25 0 0 0 Z " fill="#2D3C44" transform="translate(471,808)"/>
<path d="M0 0 C0.66 0 1.32 0 2 0 C2.33 1.65 2.66 3.3 3 5 C1.02 5.99 1.02 5.99 -1 7 C-0.67 4.69 -0.34 2.38 0 0 Z " fill="#E0D6CA" transform="translate(837,652)"/>
<path d="M0 0 C0.33 0 0.66 0 1 0 C0.67 4.29 0.34 8.58 0 13 C-0.33 13 -0.66 13 -1 13 C-2.0070238 7.96488101 -1.97387813 4.76052962 0 0 Z " fill="#DAD4CB" transform="translate(568,595)"/>
<path d="M0 0 C0.66 0.66 1.32 1.32 2 2 C0.37660195 3.70884005 -1.29319053 5.37446717 -3 7 C-3.66 7 -4.32 7 -5 7 C-3.70700306 4.11562221 -2.34058637 2.12780579 0 0 Z " fill="#E9E0D3" transform="translate(1062,549)"/>
<path d="M0 0 C0.66 0 1.32 0 2 0 C3.625 2 3.625 2 5 4 C4.67 4.66 4.34 5.32 4 6 C2.68 5.67 1.36 5.34 0 5 C0 3.35 0 1.7 0 0 Z " fill="#E3DFDA" transform="translate(646,635)"/>
<path d="M0 0 C1.32 0.33 2.64 0.66 4 1 C1.69 2.65 -0.62 4.3 -3 6 C-3 3 -3 3 -1.75 1.25 C-1.1725 0.8375 -0.595 0.425 0 0 Z " fill="#EDE3D6" transform="translate(1047,563)"/>
</svg>
